<svg id="Layer_1" data-name="Layer 1" xmlns="http://www.w3.org/2000/svg" viewBox="0 0 400 400">
  <defs>
    <style>
      .cls-1 {
        fill: #52a2af;
      }
      .cls-1,
      .cls-11 {
        stroke: #000;
      }
      .cls-1,
      .cls-11,
      .cls-4,
      .cls-5 {
        stroke-miterlimit: 10;
      }
      .cls-2 {
        fill: #77cbdd;
      }
      .cls-10,
      .cls-2,
      .cls-4,
      .cls-5,
      .cls-6,
      .cls-9 {
        stroke: #1d3660;
      }
      .cls-10,
      .cls-2,
      .cls-3,
      .cls-6,
      .cls-9 {
        stroke-linecap: round;
        stroke-linejoin: round;
      }
      .cls-10,
      .cls-2,
      .cls-3,
      .cls-6 {
        stroke-width: 2px;
      }
      .cls-11,
      .cls-3 {
        fill: none;
      }
      .cls-3 {
        stroke: #193660;
      }
      .cls-4,
      .cls-7 {
        fill: #193660;
      }
      .cls-5 {
        fill: #1d3660;
      }
      .cls-6,
      .cls-9 {
        fill: #fff;
      }
      .cls-8 {
        fill: #73bac3;
      }
      .cls-10 {
        fill: #efdcad;
      }
    </style>
  </defs>
  <title>b1</title><path class="cls-1" d="M179.74,190.31s-19.42,22-16.72,58.05h73.27s.6-41.74-19.21-58.05C217.08,190.31,200.33,198.63,179.74,190.31Z"/><polygon class="cls-2" points="163.03 248.37 163.03 289.78 195.36 289.78 199.53 255.27 207.35 289.78 236.29 289.78 236.29 248.37 163.03 248.37"/><path class="cls-2" d="M163,248.37a61,61,0,0,1-.25-8.19l73.18-.38s.34,5.7.34,8.57Z"/><path class="cls-3" d="M163,264.32s18.16,5.19,35.34.59"/><path class="cls-3" d="M163,267.82s19.63,5.78,34.94.37"/><path class="cls-3" d="M163,271.23a62.31,62.31,0,0,0,34.49.69"/><path class="cls-3" d="M201.7,264.83a51.25,51.25,0,0,0,34.6,0"/><path class="cls-3" d="M202.49,268.33s14.92,6.24,33.8,0"/><path class="cls-3" d="M203.29,271.87s15.9,5,33,0"/><path class="cls-4" d="M163,289.78h32.34s14.1,20.93-16.17,22S163,289.78,163,289.78Z"/><path class="cls-5" d="M207.36,289.78h29.38s12.81,20.93-14.69,22S207.36,289.78,207.36,289.78Z"/><path class="cls-6" d="M177.53,189.55s-30.18,24.42-28.09,50.8l13.46.38s-1.42-26.23,17-49.86Z"/><path class="cls-6" d="M217.08,191.06s16.47,12.47,18.88,49.48h14.86s-4.09-37.28-31-50.8Z"/><rect class="cls-7" x="164.86" y="242.24" width="28.26" height="3.88"/><rect class="cls-7" x="206.02" y="242.24" width="27.91" height="3.88"/><path class="cls-8" d="M180.77,192.94s-16.26,22.62-14.74,44.4h9.29Z"/><path class="cls-8" d="M217.08,192.94s16.26,22.62,14.74,44.4h-9.29Z"/><path class="cls-6" d="M179.74,191.24s-17.21,18.38-17,48.75l73.18-.37s-.77-32.88-18.88-48.38C217.08,191.24,199.35,199.4,179.74,191.24Z"/><circle class="cls-9" cx="199.66" cy="244.08" r="4.79"/><path class="cls-10" d="M243.79,142c0,30.92-19.8,52.74-44.22,52.74S155.35,173,155.35,142s18.73-44.67,43.15-44.67S243.79,111.12,243.79,142Z"/><path class="cls-10" d="M155.91,151s-8,2.93-4.59,12.85a15.64,15.64,0,0,0,12.86,10.65A62.72,62.72,0,0,1,155.91,151Z"/><path class="cls-10" d="M243.29,151s8,2.93,4.59,12.85A15.64,15.64,0,0,1,235,174.45,62.72,62.72,0,0,0,243.29,151Z"/><path
    d="M152.28,109.47s-10.6,32,5,48.9c0,0-1.71-13.65,2.85-21.72a47.41,47.41,0,0,1,0,10.87s4-10.87,2.63-14.73c0,0,1.23,7.19,2.28,9.12,0,0-1.23-11.22,2.46-15.78,0,0,28.24,20.7,55.6,22.27,0,0-19.12-11.58-19.82-22.1,0,0,1.05,16.31,23,15.26,0,0-12.28-7-11.58-15.43,0,0-4.85,20.16,34.79,26,0,0-15.07-11.43-15-19.5,0,0,1.24,16.23,15,15.31,0,0,6-55-25.47-55.39C224,92.51,164.2,75.2,152.28,109.47Z"/><ellipse cx="183.36" cy="158.95" rx="3.97" ry="6.31"/><line class="cls-11" x1="183.36" y1="154.58" x2="176.07" y2="151.83"/><line class="cls-11" x1="180.9" y1="155.57" x2="177.4" y2="154.58"/><ellipse cx="215.03" cy="159.36" rx="3.97" ry="6.31"/><line class="cls-11" x1="215.03" y1="154.99" x2="222.32" y2="152.24"/><line class="cls-11" x1="217.49" y1="155.98" x2="220.99" y2="154.99"/><path class="cls-11" d="M192.65,177.14s7,6.15,15.85,0"/><path class="cls-6" d="M179.86,190.87s-17.41,16.36-17.12,55.74l-1.4,29.24,25.92-4.75V192.94A16.58,16.58,0,0,1,179.86,190.87Z"/><polygon class="cls-6" points="187.25 215.14 179.86 219.34 187.25 257.65 187.25 215.14"/><polyline class="cls-6" points="187.25 215.14 175.34 196.46 179.86 190.87 187.25 193.65 187.34 214.29"/><path class="cls-6" d="M219,191.24S236.39,207.6,236.1,247l1.4,29.24-25.92-4.75V193.3A16.58,16.58,0,0,0,219,191.24Z"/><polygon class="cls-6" points="211.58 215.5 218.97 219.71 211.58 258.02 211.58 215.5"/><polyline class="cls-6" points="211.58 215.5 223.5 196.83 218.97 191.24 211.58 194.01 211.5 214.66"/><path class="cls-10" d="M149.15,240s-3.79,17.49,13.1,12.51V240.37Z"/><path class="cls-10" d="M250.82,239.42s4.19,17.49-14.46,12.51V239.8Z"/></svg>
