<svg id="Layer_1" data-name="Layer 1" xmlns="http://www.w3.org/2000/svg" viewBox="0 0 400 400">
  <defs>
    <style>
      .cls-1,
      .cls-2,
      .cls-5,
      .cls-7,
      .cls-8 {
        fill: none;
        stroke-miterlimit: 10;
      }
      .cls-1 {
        stroke: #193660;
      }
      .cls-2,
      .cls-8 {
        stroke: #d8993f;
      }
      .cls-2,
      .cls-5 {
        stroke-width: 0.5px;
      }
      .cls-3 {
        fill: #d8993f;
      }
      .cls-4 {
        fill: #7f0b22;
      }
      .cls-5 {
        stroke: #421872;
      }
      .cls-6 {
        fill: #145b96;
      }
      .cls-7 {
        stroke: #7f0b22;
      }
    </style>
  </defs>
  <title>b2</title><path class="cls-1" d="M298.9,121.26a6,6,0,0,0-5.58-1.62,6,6,0,0,0-4.24,3.47,6.24,6.24,0,0,0,.29,5.5,6,6,0,0,0,5,3,6.08,6.08,0,0,0,3.88-1.18,7.41,7.41,0,0,0,2.37-3.78"/><circle class="cls-2" cx="113.51" cy="279.01" r="1.5" transform="translate(-76.89 45.6) rotate(-17.07)"/><circle class="cls-3" cx="123.86" cy="184.62" r="2.68" transform="translate(-48.73 44.48) rotate(-17.07)"/><circle class="cls-4" cx="101.93" cy="206.23" r="1.88" transform="translate(-56.04 39) rotate(-17.07)"/><circle class="cls-5" cx="329.27" cy="171.26" r="3.59" transform="translate(-35.76 104.18) rotate(-17.07)"/><circle class="cls-6" cx="262.23" cy="144.21" r="2.23" transform="translate(-30.78 83.32) rotate(-17.07)"/><circle class="cls-4" cx="138.1" cy="227.45" r="1.88" transform="translate(-60.67 50.55) rotate(-17.07)"/><line class="cls-7" x1="73.35" y1="251.28" x2="73.35" y2="247.82"/><line class="cls-7" x1="73.35" y1="259.09" x2="73.35" y2="255.63"/><line class="cls-7" x1="74.81" y1="253.48" x2="78.27" y2="253.43"/><line class="cls-7" x1="68.42" y1="253.51" x2="71.88" y2="253.46"/><line class="cls-8" x1="263.43" y1="197.27" x2="265.43" y2="195.37"/><line class="cls-8" x1="259.03" y1="201.51" x2="261.03" y2="199.61"/><line class="cls-8" x1="263.25" y1="199.61" x2="265.17" y2="201.59"/><line class="cls-8" x1="259.19" y1="195.29" x2="261.11" y2="197.27"/><path class="cls-7" d="M309.87,247.72a3.58,3.58,0,0,0-3.2,1.24,3.53,3.53,0,0,0-.75,3.15,3.69,3.69,0,0,0,2.11,2.48,3.56,3.56,0,0,0,3.44-.36,3.6,3.6,0,0,0,1.4-1.95,4.38,4.38,0,0,0-.25-2.63"/><line class="cls-7" x1="276.77" y1="257.38" x2="276.77" y2="254.62"/><line class="cls-7" x1="276.77" y1="263.6" x2="276.77" y2="260.85"/><line class="cls-7" x1="277.93" y1="259.13" x2="280.69" y2="259.09"/><line class="cls-7" x1="272.84" y1="259.15" x2="275.59" y2="259.11"/><path class="cls-7" d="M77.67,146A6.31,6.31,0,0,0,76,151.79a6.23,6.23,0,0,0,3.63,4.41,6.51,6.51,0,0,0,5.73-.32,6.27,6.27,0,0,0,3.16-5.21,6.34,6.34,0,0,0-1.24-4,7.73,7.73,0,0,0-4-2.46"/><line class="cls-7" x1="70.24" y1="195.26" x2="70.24" y2="201.62"/><line class="cls-7" x1="67.14" y1="198.44" x2="73.34" y2="198.44"/><line class="cls-7" x1="114.66" y1="241.14" x2="114.66" y2="254.23"/><line class="cls-7" x1="108.28" y1="247.69" x2="121.05" y2="247.69"/></svg>
