<svg id="Layer_1" data-name="Layer 1" xmlns="http://www.w3.org/2000/svg" viewBox="0 0 400 400">
  <defs>
    <style>
      .cls-1,
      .cls-3 {
        fill: #77cbdd;
      }
      .cls-2 {
        fill: none;
        stroke: #193660;
      }
      .cls-2,
      .cls-3 {
        stroke-miterlimit: 10;
      }
      .cls-3 {
        stroke: #1d3660;
      }

            @keyframes hovering-Animation {
              0% {
                transform: translate(0px, 0px);
              }
              25% {
                transform: translate(0px, 3px);
              }
              50% {
                transform: translate(0px, 6px);
              }

              75% {
                transform: translate(0px, 9px);
              }

              100%{
                transform: translate(0px,12px);
              }
            }

                #hovering {
                  transform-origin: 50% 50% !important;
                  -moz-transform-origin: 50% 50% !important;
                  -moz-animation: hovering-Animation 1s ease-in-out infinite ;
                  animation: hovering-Animation alternate 1s  ease-in-out infinite ;
                }

    </style>
  </defs>
  <title>b3</title>
<g id="hovering">
  <path class="cls-1" d="M263.81,207.49H298s3.46,7.86-3,17c0,0-4.21,4.49-8,5.59H274.76s-7.34-3.41-9.67-8.56S262.08,212.58,263.81,207.49Z"/>
  <path class="cls-2" d="M276.57,177.9v17.7s-13,2.58-13.76,17.52a19,19,0,0,0,12,17h12.16s11.49-3.13,12-17c0,0,.4-14.77-14.51-17.69l-.08-17.53Z"/>
  <line class="cls-3" x1="262.81" y1="213.12" x2="269.24" y2="213.12"/>
  <line class="cls-3" x1="263.28" y1="216.7" x2="267.64" y2="216.7"/>
  <line class="cls-3" x1="274.08" y1="177.9" x2="286.81" y2="177.9"/>
  <circle class="cls-1" cx="284.49" cy="170.77" r="2.43"/>
  <circle class="cls-1" cx="277.98" cy="168.16" r="1.48"/>
  <circle class="cls-1" cx="283.45" cy="165.31" r="1.04"/>
</g>
</svg>
