<svg id="Layer_1" data-name="Layer 1" xmlns="http://www.w3.org/2000/svg" viewBox="0 0 400 400">
  <defs>
    <style>
      .cls-1,
      .cls-11,
      .cls-2 {
        fill: #efdcad;
      }
      .cls-1 {
        stroke: #7a3244;
      }
      .cls-1,
      .cls-11,
      .cls-2,
      .cls-4,
      .cls-7 {
        stroke-linecap: round;
        stroke-linejoin: round;
      }
      .cls-1,
      .cls-11,
      .cls-2,
      .cls-4,
      .cls-5,
      .cls-7 {
        stroke-width: 2px;
      }
      .cls-2 {
        stroke: #1d3660;
      }
      .cls-13,
      .cls-3,
      .cls-5 {
        fill: none;
      }
      .cls-12,
      .cls-13,
      .cls-3 {
        stroke: #000;
      }
      .cls-10,
      .cls-12,
      .cls-13,
      .cls-3,
      .cls-5,
      .cls-6 {
        stroke-miterlimit: 10;
      }
      .cls-4 {
        fill: #ee5f74;
      }
      .cls-10,
      .cls-11,
      .cls-4,
      .cls-5,
      .cls-6,
      .cls-7 {
        stroke: #7b3244;
      }
      .cls-6,
      .cls-8 {
        fill: #7b3244;
      }
      .cls-10,
      .cls-7 {
        fill: #fff;
      }
      .cls-9 {
        fill: #73bac3;
      }
      .cls-12 {
        fill: #8bedf2;
        opacity: 0.48;
      }
      .cls-12,
      .cls-13 {
        stroke-width: 0.5px;
      }
    </style>
  </defs>
  <title>c1</title><path class="cls-1" d="M243.26,142.63c0,30.92-19.8,52.74-44.22,52.74s-44.22-21.82-44.22-52.74S173.54,98,198,98,243.26,111.7,243.26,142.63Z"/><path class="cls-2" d="M155.38,151.54s-8,2.93-4.59,12.85A15.64,15.64,0,0,0,163.65,175,62.72,62.72,0,0,1,155.38,151.54Z"/><path class="cls-2" d="M242.76,151.54s8,2.93,4.59,12.85A15.64,15.64,0,0,1,234.49,175,62.72,62.72,0,0,0,242.76,151.54Z"/><ellipse cx="182.83" cy="159.54" rx="3.97" ry="6.31"/><line class="cls-3" x1="182.83" y1="155.16" x2="175.54" y2="152.41"/><line class="cls-3" x1="180.37" y1="156.15" x2="176.87" y2="155.16"/><ellipse cx="214.5" cy="159.95" rx="3.97" ry="6.31"/><line class="cls-3" x1="214.5" y1="155.57" x2="221.79" y2="152.82"/><line class="cls-3" x1="216.96" y1="156.56" x2="220.46" y2="155.57"/><path class="cls-3" d="M192.12,177.73s7,6.15,15.85,0"/><path
    d="M169.56,138.76l4.14-12.15,3.08,12.15s20.84,9.11,43.17,0l3.35-10.83L226,139.27s5.45,3.29,15.42-.25c0,0,1.6,41.44-28.76,53.24,0,0-13.48,4.46-1.8,17.37,0,0,10.92,13.67,26.36,0,0,0,12.91-9.7,14.17-34.59s-8.89-63.86-8.89-63.86-6.95-24.55-44.33-22.53C198.17,88.65,168.82,88.88,169.56,138.76Z"/><path
    d="M229.86,138.76l-4.14-12.15-3.08,12.15s-20.84,9.11-43.17,0l-3.35-10.83-2.69,11.34S168,142.56,158,139c0,0-1.6,41.44,28.76,53.24,0,0,13.48,4.46,1.8,17.37,0,0-10.92,13.67-26.36,0,0,0-12.91-9.7-14.17-34.59s8.89-63.86,8.89-63.86,6.95-24.55,44.33-22.53C201.25,88.65,230.6,88.88,229.86,138.76Z"/><polygon class="cls-4" points="163.88 247.97 163.88 289.39 196.22 289.39 200.39 254.88 208.2 289.39 237.15 289.39 237.15 247.97 163.88 247.97"/><path class="cls-4" d="M163.88,248a61,61,0,0,1-.25-8.19l73.18-.38s.34,5.7.34,8.57Z"/><path class="cls-5" d="M163.88,263.92s18.16,5.19,35.34.59"/><path class="cls-5" d="M163.88,267.43s19.63,5.78,34.94.37"/><path class="cls-5" d="M163.88,270.84a62.31,62.31,0,0,0,34.49.69"/><path class="cls-5" d="M202.55,264.44a51.25,51.25,0,0,0,34.6,0"/><path class="cls-5" d="M203.34,267.94s14.92,6.24,33.8,0"/><path class="cls-5" d="M204.15,271.48s15.9,5,33,0"/><path class="cls-6" d="M163.88,289.39h32.34s14.1,20.93-16.17,22S163.88,289.39,163.88,289.39Z"/><path class="cls-6" d="M208.22,289.39H237.6s12.81,20.93-14.69,22S208.22,289.39,208.22,289.39Z"/><path class="cls-7" d="M178.38,189.16S148.2,213.58,150.29,240l13.46.38s-1.42-26.23,17-49.86Z"/><path class="cls-7" d="M217.93,190.67s16.47,12.47,18.88,49.48h14.86s-4.09-37.28-31-50.8Z"/><rect class="cls-8" x="165.71" y="241.85" width="28.26" height="3.88"/><rect class="cls-8" x="206.87" y="241.85" width="27.91" height="3.88"/><path class="cls-9" d="M181.63,192.55s-16.26,22.62-14.74,44.4h9.29Z"/><path class="cls-9" d="M217.93,192.55s16.26,22.62,14.74,44.4h-9.29Z"/><path class="cls-7" d="M180.76,190.37s-17.21,18.38-17,48.75l73.18-.37s-.77-32.88-18.88-48.38C218.1,190.37,200.37,198.54,180.76,190.37Z"/><circle class="cls-10" cx="200.52" cy="243.69" r="4.79"/><path class="cls-7" d="M180.71,190.85s-17.41,16.36-17.12,55.74l-1.4,29.24,25.92-4.75V192.91A16.58,16.58,0,0,1,180.71,190.85Z"/><polygon class="cls-7" points="188.11 214.75 180.71 218.95 188.11 257.26 188.11 214.75"/><polyline class="cls-7" points="188.11 214.75 176.19 196.07 180.71 190.48 188.11 193.25 188.19 213.9"/><path class="cls-7" d="M219.83,190.85s17.41,16.36,17.12,55.74l1.4,29.24-25.92-4.75V192.91A16.58,16.58,0,0,0,219.83,190.85Z"/><polygon class="cls-7" points="212.44 215.11 219.83 219.31 212.44 257.63 212.44 215.11"/><polyline class="cls-7" points="212.44 215.11 224.35 196.44 219.83 190.85 212.44 193.62 212.35 214.26"/><path class="cls-11" d="M150,239.6s-3.79,17.49,13.1,12.51V240Z"/><path class="cls-11" d="M251.68,239s4.19,17.49-14.46,12.51V239.41Z"/><path class="cls-12" d="M179.21,147.62s-9,.86-9,11.38,9.91,12.51,9.91,12.51a26.7,26.7,0,0,0,12.28.25c7.37-1.38,5.73-8.33,5.73-8.33s0-1.76,2.8-1.8,2.76,1.8,2.76,1.8-.59,7,5.69,8.12,14.6-1.24,14.6-1.24,9.15-2.78,7.36-13.28-9.78-9.41-9.78-9.41Z"/><path class="cls-13" d="M179.21,147.62s-9,.86-9,11.38,9.91,12.51,9.91,12.51a26.7,26.7,0,0,0,12.28.25c7.37-1.38,5.73-8.33,5.73-8.33s0-1.76,2.8-1.8,2.76,1.8,2.76,1.8-.59,7,5.69,8.12,14.6-1.24,14.6-1.24,9.15-2.78,7.36-13.28-9.78-9.41-9.78-9.41Z"/><line class="cls-3" x1="229.51" y1="151.88" x2="245.27" y2="148.53"/><line class="cls-3" x1="172.13" y1="151.88" x2="155.76" y2="148.53"/></svg>
