<svg id="Layer_1" data-name="Layer 1" xmlns="http://www.w3.org/2000/svg" viewBox="0 0 400 400">
  <defs>
    <style>
      .cls-1,
      .cls-3,
      .cls-6 {
        fill: none;
        stroke-miterlimit: 10;
      }
      .cls-1 {
        stroke: #7f0b22;
      }
      .cls-2 {
        fill: #d8993f;
      }
      .cls-3 {
        stroke: #421872;
        stroke-width: 0.5px;
      }
      .cls-4 {
        fill: #145b96;
      }
      .cls-5 {
        fill: #7f0b22;
      }
      .cls-6 {
        stroke: #193660;
      }
    </style>
  </defs>
  <title>c2</title><path class="cls-1" d="M112.82,171.79a6,6,0,0,0-5.58-1.62,6,6,0,0,0-4.24,3.47,6.24,6.24,0,0,0,.29,5.5,6,6,0,0,0,5,3,6.08,6.08,0,0,0,3.88-1.18,7.41,7.41,0,0,0,2.37-3.78"/><circle class="cls-2" cx="143.22" cy="195.14" r="2.68" transform="translate(-50.97 50.63) rotate(-17.07)"/><circle class="cls-2" cx="258.62" cy="257.63" r="2.68" transform="translate(-64.22 87.25) rotate(-17.07)"/><circle class="cls-3" cx="280.2" cy="132.27" r="3.59" transform="translate(-26.48 88.06) rotate(-17.07)"/><circle class="cls-3" cx="89.79" cy="217.93" r="3.59" transform="translate(-60.01 35.95) rotate(-17.07)"/><circle class="cls-4" cx="276.61" cy="112.96" r="2.23" transform="translate(-20.97 86.16) rotate(-17.07)"/><circle class="cls-4" cx="135.87" cy="79.35" r="2.23" transform="translate(-17.3 43.37) rotate(-17.07)"/><circle class="cls-5" cx="129.22" cy="163.56" r="1.88" transform="translate(-42.31 45.13) rotate(-17.07)"/><line class="cls-1" x1="264.63" y1="283.7" x2="264.63" y2="280.24"/><line class="cls-1" x1="264.63" y1="291.51" x2="264.63" y2="288.05"/><line class="cls-1" x1="266.08" y1="285.9" x2="269.54" y2="285.85"/><line class="cls-1" x1="259.7" y1="285.92" x2="263.15" y2="285.87"/><line class="cls-1" x1="58.12" y1="247.31" x2="58.12" y2="243.85"/><line class="cls-1" x1="58.12" y1="255.12" x2="58.12" y2="251.66"/><line class="cls-1" x1="59.58" y1="249.51" x2="63.03" y2="249.46"/><line class="cls-1" x1="53.19" y1="249.53" x2="56.64" y2="249.48"/><line class="cls-6" x1="127.22" y1="233.88" x2="129.22" y2="231.99"/><line class="cls-6" x1="122.81" y1="238.13" x2="124.81" y2="236.23"/><line class="cls-6" x1="127.03" y1="236.23" x2="128.95" y2="238.21"/><line class="cls-6" x1="122.97" y1="231.91" x2="124.89" y2="233.88"/><line class="cls-1" x1="79.61" y1="128.97" x2="79.61" y2="135.33"/><line class="cls-1" x1="76.51" y1="132.15" x2="82.71" y2="132.15"/><line class="cls-1" x1="289.63" y1="251.09" x2="289.63" y2="264.17"/><line class="cls-1" x1="283.24" y1="257.63" x2="296.01" y2="257.63"/></svg>
