<?xml version="1.0" encoding="utf-8"?>
<!-- Generator: Adobe Illustrator 21.0.0, SVG Export Plug-In . SVG Version: 6.00 Build 0)  -->
<svg version="1.1" id="Layer_1" xmlns="http://www.w3.org/2000/svg" xmlns:xlink="http://www.w3.org/1999/xlink" x="0px" y="0px"
	 viewBox="0 0 325 92.9" style="enable-background:new 0 0 325 92.9;" xml:space="preserve">
<style type="text/css">
	.st0{fill:#44383C;}
	.st1{fill:none;}
	.st2{fill:#FFBB00;}
	.st3{fill:none;stroke:#FFFFFF;stroke-miterlimit:10;}
	.st4{fill:none;stroke:#FFBB00;stroke-miterlimit:10;}
	.st5{fill:#3DA96C;stroke:#FFFFFF;stroke-width:2;stroke-miterlimit:10;}
	.st6{fill:#FFFFFF;}
	.st7{fill:#3DA96C;stroke:#FFFFFF;stroke-width:2;stroke-linecap:round;stroke-linejoin:round;stroke-miterlimit:10;}
	.st8{fill:none;stroke:#FFFFFF;stroke-width:0.5;stroke-miterlimit:10;}
	.st9{fill:#3DA96C;stroke:#FFFFFF;stroke-miterlimit:10;}
	.st10{fill:#3DA96C;}
	.st11{fill:none;stroke:#FFFFFF;stroke-width:2;stroke-miterlimit:10;}
	.st12{fill:#FFFFFF;stroke:#FFFFFF;stroke-miterlimit:10;}
	.st13{fill:none;stroke:#FEBA06;stroke-miterlimit:10;}
	.text{font-family:'Montserrat', sans-serif;color:white;font-size:24px;}
</style>
<g>
	<g>
		<path id="XMLID_136_" class="st2" d="M61,22.1c0-11.8,9.6-21.4,21.4-21.4s21.4,9.6,21.4,21.4"/>
		<rect id="XMLID_135_" x="106.2" y="46.2" class="st2" width="97.2" height="6.6"/>
		<polyline id="XMLID_134_" class="st2" points="237.5,26.7 225.7,20.2 213.7,26.3 		"/>
		<path id="XMLID_133_" class="st2" d="M111.9,61.9H2c-1.1,0-2-0.9-2-2l0-3.3c0-1.1,0.9-2,2-2h109.9c1.1,0,2,0.9,2,2v3.3
			C113.9,61,113,61.9,111.9,61.9z"/>
		<polygon id="XMLID_132_" class="st2" points="289,62.5 269,64.6 257.2,48.2 265.4,29.9 285.4,27.8 297.2,44.1 		"/>
		<polyline id="XMLID_131_" class="st2" points="175.5,30.9 209.8,31.2 250.8,70.1 		"/>
		<line id="XMLID_130_" class="st3" x1="1.9" y1="55.6" x2="104.6" y2="55.6"/>
		<line id="XMLID_129_" class="st3" x1="107.6" y1="47.1" x2="203.2" y2="47.6"/>
		<polygon id="XMLID_128_" class="st2" points="10.3,70.6 43.3,77.5 17.3,88 		"/>
		<line id="XMLID_127_" class="st4" x1="10.4" y1="29.2" x2="80.6" y2="29.2"/>
		<line id="XMLID_126_" class="st4" x1="55.3" y1="33.3" x2="168.5" y2="33.7"/>
		<path id="XMLID_123_" class="st5" d="M82.3,13.3v65.5h48.5L82.3,13.3z M90,38l25.6,33.7H90V38z"/>
		<path id="XMLID_120_" class="st6" d="M192.8,67.2c-3.3,0-6,2.7-6,6c0,3.3,2.7,6,6,6c3.3,0,6-2.7,6-6
			C198.8,69.9,196.1,67.2,192.8,67.2z M192.8,76.8c-2,0-3.6-1.6-3.6-3.6c0-2,1.6-3.6,3.6-3.6c2,0,3.6,1.6,3.6,3.6
			C196.4,75.2,194.8,76.8,192.8,76.8z"/>
		<path id="XMLID_119_" class="st7" d="M187.6,70.7l-20.5-58.3l24.7,55.5C191.8,67.9,188.4,68.8,187.6,70.7z"/>
		<path id="XMLID_116_" class="st7" d="M198.1,70.3L218.6,12l-24.7,55.5C193.9,67.5,197.3,68.4,198.1,70.3z"/>
		<circle id="XMLID_115_" class="st3" cx="192.8" cy="73.1" r="2.1"/>
		<rect id="XMLID_114_" x="227.5" y="17" class="st3" width="15" height="2.1"/>
		<circle id="XMLID_113_" class="st3" cx="238.9" cy="13.8" r="1"/>
		<circle id="XMLID_112_" class="st8" cx="229.2" cy="14.7" r="0.5"/>
		<circle id="XMLID_111_" class="st8" cx="231.5" cy="12.6" r="0.7"/>
		<path id="XMLID_110_" class="st9" d="M228.9,39h11.8v37.6c0,0-5.3,5.4-11.8,0V39z"/>
		<polygon id="XMLID_109_" class="st5" points="20.2,13.3 19.9,79.3 32.1,79.3 31.8,13.2 		"/>
		<rect id="XMLID_108_" x="21.3" y="14.8" class="st6" width="9.3" height="5.9"/>
		<rect id="XMLID_107_" x="21.5" y="21.5" class="st6" width="8.9" height="1.2"/>
		<rect id="XMLID_106_" x="21.5" y="23.6" class="st6" width="8.9" height="1.2"/>
		<path id="XMLID_102_" class="st5" d="M60,12.8v64.6c0,0,4.9,4.9,11.1,0l-0.4-64.8C70.7,12.7,65.7,17.4,60,12.8z"/>
		<path id="XMLID_101_" class="st6" d="M59.8,54.5c0,0,4.2,4.7,11.1,0v3.1c0,0-6.1,4.9-11.1,0V54.5z"/>
		<path id="XMLID_100_" class="st6" d="M59.8,60c0,0,4.2,4.7,11.1,0v3.1c0,0-6.1,4.9-11.1,0V60z"/>
		<path id="XMLID_98_" class="st3" d="M58.8,41.1H36.6c0,0-3-0.1-3.3,3.2c0,0,0.1,3.2,3.1,3.2h22.4"/>
		<rect id="XMLID_96_" x="35.4" y="42.2" class="st10" width="23.3" height="0.5"/>
		<rect id="XMLID_95_" x="35.4" y="43.5" class="st10" width="23.3" height="0.5"/>
		<rect id="XMLID_94_" x="35.4" y="44.7" class="st10" width="23.3" height="0.5"/>
		<rect id="XMLID_93_" x="35.4" y="45.9" class="st10" width="23.3" height="0.5"/>
		<circle id="XMLID_90_" class="st5" cx="255" cy="73.8" r="4.7"/>
		<circle id="XMLID_89_" class="st5" cx="315.2" cy="17.4" r="4.7"/>
		<polyline id="XMLID_88_" class="st11" points="256,69.1 275.6,22.1 295.3,68.9 315.2,22.1 		"/>
		<circle id="XMLID_87_" class="st5" cx="275.6" cy="17.4" r="4.7"/>
		<circle id="XMLID_86_" class="st5" cx="294.6" cy="73.8" r="4.7"/>
		<path id="XMLID_80_" class="st5" d="M140.2,13.1v31c11.5,0,20.8-6.9,20.8-15.5C161,20.1,151.7,13.1,140.2,13.1z M145.5,37V21.6
			c5.7,0,10.3,3.4,10.3,7.7S151.2,37,145.5,37z"/>
		<polygon id="XMLID_75_" class="st9" points="144.4,55 149.1,50.8 166.7,70.9 162.5,74.6 		"/>
		<polyline id="XMLID_74_" class="st11" points="169.4,78.5 140.2,46 140.4,53.1 137.3,56.1 140.6,58.5 137.4,61.1 140.4,64.2
			137.4,66.5 140,69.3 140,78.8 		"/>
		<polygon id="XMLID_73_" class="st12" points="162.9,74.9 167,71.4 170,78.9 		"/>
		<path id="XMLID_72_" class="st11" d="M228.9,21.5h11.8v55.1c0,0-5.9,5.3-11.8,0V21.5z"/>
	</g>
	<line id="XMLID_24_" class="st13" x1="146.5" y1="92.2" x2="301.6" y2="92.2"/>
	<line id="XMLID_17_" class="st4" x1="211.8" y1="87.4" x2="325" y2="87.8"/>
		<text transform="matrix(1 0 0 1 124.74 122.9844)" class="text" >ACADEMY</text>
</g>
</svg>
