<svg id="Layer_1" data-name="Layer 1" xmlns="http://www.w3.org/2000/svg" viewBox="0 0 400 400">
  <defs>
    <style>
      .cls-1 {
        fill: #52a2af;
      }
      .cls-1,
      .cls-11,
      .cls-12,
      .cls-13 {
        stroke: #000;
      }
      .cls-1,
      .cls-11,
      .cls-12,
      .cls-13,
      .cls-4,
      .cls-5 {
        stroke-miterlimit: 10;
      }
      .cls-2 {
        fill: #77cbdd;
      }
      .cls-10,
      .cls-2,
      .cls-4,
      .cls-5,
      .cls-6,
      .cls-9 {
        stroke: #1d3660;
      }
      .cls-10,
      .cls-2,
      .cls-3,
      .cls-6,
      .cls-9 {
        stroke-linecap: round;
        stroke-linejoin: round;
      }
      .cls-10,
      .cls-2,
      .cls-3,
      .cls-6 {
        stroke-width: 2px;
      }
      .cls-11,
      .cls-13,
      .cls-3 {
        fill: none;
      }
      .cls-3 {
        stroke: #193660;
      }
      .cls-4,
      .cls-7 {
        fill: #193660;
      }
      .cls-5 {
        fill: #1d3660;
      }
      .cls-6,
      .cls-9 {
        fill: #fff;
      }
      .cls-8 {
        fill: #73bac3;
      }
      .cls-10 {
        fill: #efdcad;
      }
      .cls-12 {
        fill: #8bedf2;
        opacity: 0.48;
      }
      .cls-12,
      .cls-13 {
        stroke-width: 0.5px;
      }
    </style>
  </defs>
  <title>p1</title><path class="cls-1" d="M180,190.31s-19.42,22-16.72,58.05h73.27s.6-41.74-19.21-58.05C217.36,190.31,200.61,198.63,180,190.31Z"/><polygon class="cls-2" points="163.31 248.37 163.31 289.78 195.65 289.78 199.81 255.27 207.63 289.78 236.58 289.78 236.58 248.37 163.31 248.37"/><path class="cls-2" d="M163.31,248.37a61,61,0,0,1-.25-8.19l73.18-.38s.34,5.7.34,8.57Z"/><path class="cls-3" d="M163.31,264.32s18.16,5.19,35.34.59"/><path class="cls-3" d="M163.31,267.82s19.63,5.78,34.94.37"/><path class="cls-3" d="M163.31,271.23a62.31,62.31,0,0,0,34.49.69"/><path class="cls-3" d="M202,264.83a51.25,51.25,0,0,0,34.6,0"/><path class="cls-3" d="M202.77,268.33s14.92,6.24,33.8,0"/><path class="cls-3" d="M203.57,271.87s15.9,5,33,0"/><path class="cls-4" d="M163.31,289.78h32.34s14.1,20.93-16.17,22S163.31,289.78,163.31,289.78Z"/><path class="cls-5" d="M207.65,289.78H237s12.81,20.93-14.69,22S207.65,289.78,207.65,289.78Z"/><path class="cls-6" d="M177.81,189.55s-30.18,24.42-28.09,50.8l13.46.38s-1.42-26.23,17-49.86Z"/><path class="cls-6" d="M217.36,191.06s16.47,12.47,18.88,49.48h14.86s-4.09-37.28-31-50.8Z"/><rect class="cls-7" x="165.14" y="242.24" width="28.26" height="3.88"/><rect class="cls-7" x="206.3" y="242.24" width="27.91" height="3.88"/><path class="cls-8" d="M181.05,192.94s-16.26,22.62-14.74,44.4h9.29Z"/><path class="cls-8" d="M217.36,192.94s16.26,22.62,14.74,44.4h-9.29Z"/><path class="cls-2" d="M162.7,233.19H150s-5.27,16.74,2.93,23.66c0,0,4.86,3.19,9.76,0C162.7,256.85,161.87,239.89,162.7,233.19Z"/><path class="cls-7" d="M150.71,233.19a34.39,34.39,0,0,0-1.58,10.6h13.22a103,103,0,0,1,.34-10.6Z"/><path class="cls-2" d="M162.51,252s-5.42,1-5.87-3"/><path class="cls-2" d="M236.93,234.58h13s5.41,16.74-3,23.66c0,0-5,3.19-10,0C236.93,258.24,237.78,241.28,236.93,234.58Z"/><path class="cls-7" d="M249.22,234.58a33.61,33.61,0,0,1,1.62,10.6H237.28a100.46,100.46,0,0,0-.35-10.6Z"/><path class="cls-2" d="M237.13,253.42s5.56,1,6-3"/><path class="cls-6" d="M180,191.24s-17.21,18.38-17,48.75l73.18-.37s-.77-32.88-18.88-48.38C217.36,191.24,199.63,199.4,180,191.24Z"/><circle class="cls-9" cx="199.94" cy="244.08" r="4.79"/><path class="cls-10" d="M244.07,142c0,30.92-19.8,52.74-44.22,52.74S155.63,173,155.63,142s18.73-44.67,43.15-44.67S244.07,111.12,244.07,142Z"/><path class="cls-10" d="M156.2,151s-8,2.93-4.59,12.85a15.64,15.64,0,0,0,12.86,10.65A62.72,62.72,0,0,1,156.2,151Z"/><path class="cls-10" d="M243.57,151s8,2.93,4.59,12.85a15.64,15.64,0,0,1-12.86,10.65A62.72,62.72,0,0,0,243.57,151Z"/><path
    d="M152.57,109.47s-10.6,32,5,48.9c0,0-1.71-13.65,2.85-21.72a47.41,47.41,0,0,1,0,10.87s4-10.87,2.63-14.73c0,0,1.23,7.19,2.28,9.12,0,0-1.23-11.22,2.46-15.78,0,0,28.24,20.7,55.6,22.27,0,0-19.12-11.58-19.82-22.1,0,0,1.05,16.31,23,15.26,0,0-12.28-7-11.58-15.43,0,0-4.85,20.16,34.79,26,0,0-15.07-11.43-15-19.5,0,0,1.24,16.23,15,15.31,0,0,6-55-25.47-55.39C224.32,92.51,164.48,75.2,152.57,109.47Z"/><ellipse cx="183.65" cy="158.95" rx="3.97" ry="6.31"/><line class="cls-11" x1="183.65" y1="154.58" x2="176.36" y2="151.83"/><line class="cls-11" x1="181.19" y1="155.57" x2="177.69" y2="154.58"/><ellipse cx="215.32" cy="159.36" rx="3.97" ry="6.31"/><line class="cls-11" x1="215.32" y1="154.99" x2="222.61" y2="152.24"/><line class="cls-11" x1="217.78" y1="155.98" x2="221.28" y2="154.99"/><path class="cls-11" d="M192.94,177.14s7,6.15,15.85,0"/><path class="cls-6" d="M180.14,190.87S162.73,207.23,163,246.61l-1.4,29.24,25.92-4.75V192.94A16.58,16.58,0,0,1,180.14,190.87Z"/><polygon class="cls-6" points="187.53 215.14 180.14 219.34 187.53 257.65 187.53 215.14"/><polyline class="cls-6" points="187.53 215.14 175.62 196.46 180.14 190.87 187.53 193.65 187.62 214.29"/><path class="cls-6" d="M219.26,191.24S236.67,207.6,236.38,247l1.4,29.24-25.92-4.75V193.3A16.58,16.58,0,0,0,219.26,191.24Z"/><polygon class="cls-6" points="211.87 215.5 219.26 219.71 211.87 258.02 211.87 215.5"/><polyline class="cls-6" points="211.87 215.5 223.78 196.83 219.26 191.24 211.87 194.01 211.78 214.66"/><path class="cls-12" d="M178,149.35s-9,.86-9,11.38,9.91,12.51,9.91,12.51a26.7,26.7,0,0,0,12.28.25c7.37-1.38,5.73-8.33,5.73-8.33s0-1.76,2.8-1.8,2.76,1.8,2.76,1.8-.59,7,5.69,8.12,14.6-1.24,14.6-1.24,9.15-2.78,7.36-13.28-9.78-9.41-9.78-9.41Z"/><path class="cls-13" d="M178,149.35s-9,.86-9,11.38,9.91,12.51,9.91,12.51a26.7,26.7,0,0,0,12.28.25c7.37-1.38,5.73-8.33,5.73-8.33s0-1.76,2.8-1.8,2.76,1.8,2.76,1.8-.59,7,5.69,8.12,14.6-1.24,14.6-1.24,9.15-2.78,7.36-13.28-9.78-9.41-9.78-9.41Z"/><line class="cls-11" x1="228.31" y1="153.61" x2="244.07" y2="150.26"/><line class="cls-11" x1="170.93" y1="153.61" x2="154.56" y2="150.26"/></svg>
