<svg id="Layer_1" data-name="Layer 1" xmlns="http://www.w3.org/2000/svg" viewBox="0 0 400 400">
  <defs>
    <style>
      .cls-1 {
        fill: #1d3660;
      }
      .cls-2 {
        fill: #fff;
      }
      .cls-3 {
        fill: #77cbdd;
        stroke: #1d3660;
        stroke-linecap: round;
        stroke-linejoin: round;
        stroke-width: 0.5px;
      }

            @keyframes hovering-Animation {
              0% {
                transform: translate(0px, 0px);
              }
              25% {
                transform: translate(0px, 3px);
              }
              50% {
                transform: translate(0px, 6px);
              }

              75% {
                transform: translate(0px, 9px);
              }

              100%{
                transform: translate(0px,12px);
              }
            }

                #hovering {
                  transform-origin: 50% 50% !important;
                  -moz-transform-origin: 50% 50% !important;
                  -moz-animation: hovering-Animation 1s ease-in-out infinite ;
                  animation: hovering-Animation alternate 1s  ease-in-out infinite ;
                }

    </style>
  </defs>
  <title>p3</title>
<g id="hovering">
  <path class="cls-1" d="M288.3,176.13v5.74a19.42,19.42,0,1,1-10.54,37.37,22.22,22.22,0,0,1-8.63,1.73h-.53a25,25,0,1,0,19.7-44.84Z"/>
  <rect class="cls-1" x="261.03" y="216.29" width="22.66" height="4.83"/>
  <path class="cls-1" d="M267.13,229.46h33.11a2.59,2.59,0,0,0,1.15-4.91c-8-3.87-21.13-7.48-35.45,0A2.59,2.59,0,0,0,267.13,229.46Z"/>
  <circle class="cls-2" cx="283.69" cy="224.83" r="2.09"/>
  <rect class="cls-3" x="282.43" y="172.98" width="7.87" height="28.2" transform="translate(100.28 -99.93) rotate(23.89)"/>
  <rect class="cls-3" x="288.83" y="172.09" width="7.87" height="1.05" transform="translate(94.97 -103.76) rotate(23.89)"/>
  <rect class="cls-3" x="277.48" y="200.94" width="5.06" height="0.99" transform="translate(105.55 -96.13) rotate(23.89)"/>
</g>
</svg>
