<svg id="Layer_1" data-name="Layer 1" xmlns="http://www.w3.org/2000/svg" viewBox="0 0 400 400">
  <defs>
    <style>
      .cls-1,
      .cls-8 {
        fill: #efdcad;
      }
      .cls-1 {
        stroke: #1d3660;
      }
      .cls-1,
      .cls-3,
      .cls-4,
      .cls-5,
      .cls-6,
      .cls-7,
      .cls-8 {
        stroke-linecap: round;
        stroke-linejoin: round;
      }
      .cls-1,
      .cls-3,
      .cls-4,
      .cls-5,
      .cls-7,
      .cls-8 {
        stroke-width: 2px;
      }
      .cls-2,
      .cls-5 {
        fill: none;
      }
      .cls-2 {
        stroke: #000;
        stroke-miterlimit: 10;
      }
      .cls-3,
      .cls-6 {
        fill: #fff;
      }
      .cls-3,
      .cls-4,
      .cls-5,
      .cls-6,
      .cls-7,
      .cls-8 {
        stroke: #7b3244;
      }
      .cls-4 {
        fill: #ee5f74;
      }
      .cls-7,
      .cls-9 {
        fill: #7b3244;
      }
    </style>
  </defs>
  <title>w1</title><path class="cls-1" d="M243.4,142.22c0,30.92-19.8,52.74-44.22,52.74S155,173.14,155,142.22s18.73-44.67,43.15-44.67S243.4,111.3,243.4,142.22Z"/><path class="cls-1" d="M155.53,151.13s-8,2.93-4.59,12.85a15.64,15.64,0,0,0,12.86,10.65A62.72,62.72,0,0,1,155.53,151.13Z"/><path class="cls-1" d="M242.9,151.13s8,2.93,4.59,12.85a15.64,15.64,0,0,1-12.86,10.65A62.72,62.72,0,0,0,242.9,151.13Z"/><ellipse cx="182.98" cy="159.13" rx="3.97" ry="6.31"/><line class="cls-2" x1="182.98" y1="154.76" x2="175.69" y2="152"/><line class="cls-2" x1="180.52" y1="155.75" x2="177.02" y2="154.76"/><ellipse cx="214.65" cy="159.54" rx="3.97" ry="6.31"/><line class="cls-2" x1="214.65" y1="155.16" x2="221.94" y2="152.41"/><line class="cls-2" x1="217.11" y1="156.16" x2="220.61" y2="155.16"/><path class="cls-2" d="M192.27,177.32s7,6.15,15.85,0"/><path class="cls-3" d="M180.52,190.33s-19.42,22-16.72,58.05h73.27s.6-41.74-19.21-58.05C217.85,190.33,201.1,198.64,180.52,190.33Z"/><polygon class="cls-4" points="163.8 248.38 163.8 289.79 196.14 289.79 200.31 255.28 208.12 289.79 237.07 289.79 237.07 248.38 163.8 248.38"/><path class="cls-4" d="M163.8,248.38a61,61,0,0,1-.25-8.19l73.18-.38s.34,5.7.34,8.57Z"/><path class="cls-5" d="M163.8,264.33s18.16,5.19,35.34.59"/><path class="cls-5" d="M163.8,267.83s19.63,5.78,34.94.37"/><path class="cls-5" d="M163.8,271.25a62.31,62.31,0,0,0,34.49.69"/><path class="cls-5" d="M202.47,264.85a51.25,51.25,0,0,0,34.6,0"/><path class="cls-5" d="M203.26,268.34s14.92,6.24,33.8,0"/><path class="cls-5" d="M204.06,271.89s15.9,5,33,0"/><circle class="cls-6" cx="200.43" cy="244.09" r="4.79"/><path class="cls-7" d="M163.8,289.79h32.34s14.1,20.93-16.17,22S163.8,289.79,163.8,289.79Z"/><path class="cls-7" d="M208.14,289.79h29.38s12.81,20.93-14.69,22S208.14,289.79,208.14,289.79Z"/><path class="cls-3" d="M178.18,189s-30.18,24.42-28.09,50.8l13.46.38s-1.42-26.23,17-49.86Z"/><path class="cls-3" d="M217.85,190.33s16.47,12.47,18.88,49.48h14.86s-4.09-37.28-31-50.8Z"/><path class="cls-8" d="M150.09,239.81s-3.9,17.49,13.45,12.51V240.19Z"/><rect class="cls-9" x="165.63" y="242.25" width="28.26" height="3.88"/><rect class="cls-9" x="206.79" y="242.25" width="27.91" height="3.88"/><path class="cls-8" d="M251.53,239.81s4.19,17.49-14.46,12.51V240.19Z"/><path
    d="M169.71,138.35l4.14-12.15,3.08,12.15s20.84,9.11,43.17,0l3.35-10.83,2.69,11.34s5.45,3.29,15.42-.25c0,0,1.6,41.44-28.76,53.24,0,0-13.48,4.46-1.8,17.37,0,0,10.92,13.67,26.36,0,0,0,12.91-9.7,14.17-34.59s-8.89-63.86-8.89-63.86-6.95-24.55-44.33-22.53C198.32,88.24,169,88.47,169.71,138.35Z"/><path
    d="M230,138.35l-4.14-12.15-3.08,12.15s-20.84,9.11-43.17,0l-3.35-10.83-2.69,11.34s-5.45,3.29-15.42-.25c0,0-1.6,41.44,28.76,53.24,0,0,13.48,4.46,1.8,17.37,0,0-10.92,13.67-26.36,0,0,0-12.91-9.7-14.17-34.59s8.89-63.86,8.89-63.86S164,86.22,201.4,88.24C201.4,88.24,230.75,88.47,230,138.35Z"/></svg>
