<svg id="Layer_1" data-name="Layer 1" xmlns="http://www.w3.org/2000/svg" viewBox="0 0 400 400">
  <defs>
    <style>
      .cls-1 {
        fill: #74dde8;
      }
      .cls-2 {
        fill: #fff;
      }
      .cls-3 {
        fill: #346c9b;
      }
      .cls-4 {
        fill: #193660;
      }

            @keyframes hovering-Animation {
              0% {
                transform: translate(0px, 0px);
              }
              25% {
                transform: translate(0px, 3px);
              }
              50% {
                transform: translate(0px, 6px);
              }

              75% {
                transform: translate(0px, 9px);
              }

              100%{
                transform: translate(0px,12px);
              }
            }

                #hovering {
                  transform-origin: 50% 50% !important;
                  -moz-transform-origin: 50% 50% !important;
                  -moz-animation: hovering-Animation 1s ease-in-out infinite ;
                  animation: hovering-Animation alternate 1s  ease-in-out infinite ;
                }

    </style>
  </defs>
  <title>w3</title>
<g id="hovering">
  <rect class="cls-1" x="265.63" y="176.16" width="41.82" height="51.87"/>
  <rect class="cls-2" x="268.66" y="179.22" width="35.35" height="45.75"/>
  <path class="cls-3" d="M295.26,174.34h-7.54a1.18,1.18,0,0,1-2.36,0h-7.54a.94.94,0,0,0-.94.94v4.13a.94.94,0,0,0,.94.94h17.44a.94.94,0,0,0,.94-.94v-4.13A.94.94,0,0,0,295.26,174.34Z"/>
  <path class="cls-3" d="M286.55,172c-3.06,0-3.06,4.75,0,4.75S289.61,172,286.55,172Zm0,3.56a1.18,1.18,0,0,1,0-2.37A1.18,1.18,0,0,1,286.55,175.52Z"/>
  <path class="cls-4" d="M295.78,180.36H278.3a4.7,4.7,0,0,1-.93,0c-.61-.13-.62-1.06-.49-1.63.18-.74,1.49-.47,2.13-.47h15.74a4.47,4.47,0,0,1,1,0c.44.11.42.26.45.69S296.39,180.36,295.78,180.36Z"/>
  <rect class="cls-4" x="271.42" y="186.71" width="29.6" height="1.31"/>
  <rect class="cls-4" x="271.42" y="192.77" width="29.6" height="1.31"/>
  <rect class="cls-4" x="271.42" y="198.83" width="29.6" height="1.31"/>
  <rect class="cls-4" x="271.42" y="204.89" width="29.6" height="1.31"/>
  <rect class="cls-4" x="271.42" y="210.95" width="29.6" height="1.31"/>
  <rect class="cls-4" x="271.42" y="217.01" width="29.6" height="1.31"/>
</g>
</svg>
