<?xml version="1.0" encoding="utf-8"?>
<!-- Generator: Adobe Illustrator 21.0.0, SVG Export Plug-In . SVG Version: 6.00 Build 0)  -->
<svg version="1.1" id="Layer_1" xmlns="http://www.w3.org/2000/svg" xmlns:xlink="http://www.w3.org/1999/xlink" x="0px" y="0px"
	 viewBox="0 0 472 335.3" style="enable-background:new 0 0 472 335.3;" xml:space="preserve">
<style type="text/css">
	.st0{fill:#070607;}
	.st1{fill:#44383C;}
	.st2{fill:none;}
	.st3{fill:#FFBB00;}
	.st4{fill:none;stroke:#FFFFFF;stroke-miterlimit:10;}
	.st5{fill:none;stroke:#FFBB00;stroke-miterlimit:10;}
	.st6{fill:#3DA96C;stroke:#FFFFFF;stroke-width:2;stroke-miterlimit:10;}
	.st7{fill:#FFFFFF;}
	.st8{fill:#3DA96C;stroke:#FFFFFF;stroke-width:2;stroke-linecap:round;stroke-linejoin:round;stroke-miterlimit:10;}
	.st9{fill:none;stroke:#FFFFFF;stroke-width:2;stroke-miterlimit:10;}
	.st10{fill:none;stroke:#FFFFFF;stroke-width:0.5;stroke-miterlimit:10;}
	.st11{fill:none;stroke:#FFFFFF;stroke-width:0.25;stroke-miterlimit:10;}
	.st12{fill:#3DA96C;}
	.st13{fill:#3DA96C;stroke:#FFFFFF;stroke-miterlimit:10;}
	.st14{fill:#FFFFFF;stroke:#FFFFFF;stroke-miterlimit:10;}
	.st15{fill:none;stroke:#FEBA06;stroke-miterlimit:10;}
	.st16{font-family:'Montserrat', sans-serif;}
	.st17{font-size:60px;}
	.st18{letter-spacing:12;}
</style>
<g>
	<path id="XMLID_56_" class="st3" d="M88.2,132.6c0-17,13.8-30.7,30.7-30.7s30.7,13.8,30.7,30.7"/>
	<rect id="XMLID_51_" x="153.3" y="167.3" class="st3" width="140" height="9.5"/>
	<polyline id="XMLID_60_" class="st3" points="342.4,139.2 325.3,129.9 308,138.7 	"/>
	<path id="XMLID_53_" class="st3" d="M162.3,189.9H2.3c-1.1,0-2-0.9-2-2l0-6.6c0-1.1,0.9-2,2-2h160c1.1,0,2,0.9,2,2v6.6
		C164.3,189,163.4,189.9,162.3,189.9z"/>
	<polygon id="XMLID_54_" class="st3" points="416.5,190.8 387.6,193.8 370.6,170.3 382.5,143.8 411.4,140.8 428.4,164.3 	"/>
	<polyline id="XMLID_55_" class="st3" points="253,145.3 302.5,145.8 361.5,201.8 	"/>
	<line id="XMLID_57_" class="st4" x1="3" y1="180.8" x2="151" y2="180.8"/>
	<line id="XMLID_58_" class="st4" x1="155.3" y1="168.7" x2="293" y2="169.3"/>
	<polygon id="XMLID_59_" class="st3" points="15.2,202.5 62.7,212.4 25.2,227.6 	"/>
	<line id="XMLID_52_" class="st5" x1="15.3" y1="142.8" x2="116.3" y2="142.8"/>
	<line id="XMLID_61_" class="st5" x1="80" y1="148.8" x2="243" y2="149.3"/>
	<path id="XMLID_426_" class="st6" d="M118.9,120v94.3h69.8L118.9,120z M129.9,155.5l36.8,48.5h-36.8V155.5z"/>
	<path id="XMLID_429_" class="st7" d="M278,197.7c-4.8,0-8.7,3.9-8.7,8.7c0,4.8,3.9,8.7,8.7,8.7c4.8,0,8.7-3.9,8.7-8.7
		C286.7,201.5,282.8,197.7,278,197.7z M278,211.5c-2.9,0-5.2-2.3-5.2-5.2s2.3-5.2,5.2-5.2c2.9,0,5.2,2.3,5.2,5.2
		S280.9,211.5,278,211.5z"/>
	<path id="XMLID_423_" class="st8" d="M270.5,202.6l-29.5-84l35.6,79.9C276.6,198.6,271.6,199.9,270.5,202.6z"/>
	<path id="XMLID_422_" class="st8" d="M285.5,202.1l29.5-84l-35.6,79.9C279.5,198.1,284.5,199.4,285.5,202.1z"/>
	<circle id="XMLID_79_" class="st4" cx="278" cy="206.2" r="3"/>
	<rect id="XMLID_430_" x="328" y="123.3" class="st4" width="21.7" height="3"/>
	<path id="XMLID_434_" class="st9" d="M330,129.8h17v81.2c0,0-8.5,7.8-17,0V129.8z"/>
	<circle id="XMLID_76_" class="st10" cx="344.3" cy="119.7" r="1.5"/>
	<circle id="XMLID_77_" class="st11" cx="330.4" cy="121" r="0.7"/>
	<circle id="XMLID_78_" class="st10" cx="333.6" cy="117.9" r="1"/>
	<path id="XMLID_82_" class="st6" d="M330,157h17v54.1c0,0-7.7,7.8-17,0V157z"/>
	<polygon id="XMLID_81_" class="st6" points="29.4,120 29,215.1 46.5,215.1 46.2,119.8 	"/>
	<rect id="XMLID_83_" x="31" y="122.1" class="st7" width="13.3" height="8.5"/>
	<rect id="XMLID_117_" x="31.2" y="131.8" class="st7" width="12.8" height="1.8"/>
	<rect id="XMLID_157_" x="31.2" y="134.8" class="st7" width="12.8" height="1.8"/>
	<path id="XMLID_159_" class="st6" d="M86.8,119.3v93c0,0,7.1,7,16,0l-0.5-93.2C102.2,119.1,94.9,125.8,86.8,119.3z"/>
	<path id="XMLID_158_" class="st7" d="M86.5,179.3c0,0,6,6.8,16,0v4.5c0,0-8.8,7-16,0V179.3z"/>
	<path id="XMLID_160_" class="st7" d="M86.5,187.2c0,0,6,6.8,16,0v4.5c0,0-8.8,7-16,0V187.2z"/>
	<path id="XMLID_161_" class="st4" d="M85,160.1H53c0,0-4.4-0.1-4.7,4.6c0,0,0.1,4.6,4.4,4.6H85"/>
	<rect id="XMLID_163_" x="51.3" y="161.7" class="st12" width="33.5" height="0.8"/>
	<rect id="XMLID_164_" x="51.3" y="163.4" class="st12" width="33.5" height="0.8"/>
	<rect id="XMLID_166_" x="51.3" y="165.2" class="st12" width="33.5" height="0.8"/>
	<rect id="XMLID_167_" x="51.3" y="167" class="st12" width="33.5" height="0.8"/>
	<g id="XMLID_178_">
		<circle id="XMLID_165_" class="st6" cx="367.5" cy="207.2" r="6.8"/>
		<circle id="XMLID_169_" class="st6" cx="454.2" cy="125.8" r="6.8"/>
		<polyline id="XMLID_174_" class="st9" points="369,200.3 397.2,132.7 425.5,200.1 454.2,132.7 		"/>
		<circle id="XMLID_168_" class="st6" cx="397.2" cy="125.8" r="6.8"/>
		<circle id="XMLID_170_" class="st6" cx="424.5" cy="207.2" r="6.8"/>
	</g>
	<path id="XMLID_236_" class="st6" d="M202.2,119.7v44.6c16.8,0,30.5-10,30.5-22.3C232.7,129.7,219,119.7,202.2,119.7z M210,154.1
		v-22.2c8.4,0,15.2,5,15.2,11.1C225.2,149.1,218.4,154.1,210,154.1z"/>
	<polygon id="XMLID_104_" class="st13" points="208.3,180 215,174 240.3,203 234.3,208.3 	"/>
	<polyline id="XMLID_105_" class="st9" points="244.2,213.8 202.2,167.1 202.5,177.3 198,181.6 202.8,185.1 198.2,188.8
		202.5,193.3 198.2,196.6 202,200.7 202,214.3 	"/>
	<polygon id="XMLID_97_" class="st14" points="234.9,208.7 240.8,203.7 245.1,214.5 	"/>
	<line id="XMLID_118_" class="st15" x1="214.7" y1="229.3" x2="438" y2="229.3"/>
	<line id="XMLID_50_" class="st5" x1="308.7" y1="222.5" x2="471.7" y2="223"/>
</g>
<rect id="XMLID_273_" x="55.5" y="3.4" class="st2" width="361" height="48.5"/>
<text id="XMLID_274_" transform="matrix(1 0 0 1 30.9624 45.4044)" class="st7 st16 st17 st18">WELCOME TO</text>
<rect id="XMLID_2_" x="103.1" y="291.1" class="st2" width="265.7" height="44.2"/>
<text id="XMLID_1_" transform="matrix(1 0 0 1 90.6114 333.0644)" class="st7 st16 st17 st18">ACADEMY</text>
</svg>
