<?xml version="1.0" encoding="utf-8"?>
<!-- Generator: Adobe Illustrator 21.0.0, SVG Export Plug-In . SVG Version: 6.00 Build 0)  -->
<svg version="1.1" id="Layer_1" xmlns="http://www.w3.org/2000/svg" xmlns:xlink="http://www.w3.org/1999/xlink" x="0px" y="0px"
	 viewBox="0 0 150 130" style="enable-background:new 0 0 150 130;" xml:space="preserve">
<style type="text/css">
	.st0{opacity:0.7;fill-rule:evenodd;clip-rule:evenodd;fill:#12b38b;}
	.st1{fill-rule:evenodd;clip-rule:evenodd;fill:#FFFFFF;}
	.st2{fill-rule:evenodd;clip-rule:evenodd;fill:none;stroke:#000000;stroke-miterlimit:10;}
	.st3{fill-rule:evenodd;clip-rule:evenodd;}
	.st4{fill:#606362;}
	.st5{fill-rule:evenodd;clip-rule:evenodd;fill:none;}
	.st6{font-family:'CenturyGothic';}
	.st7{font-size:9px;}
	.st8{fill-rule:evenodd;clip-rule:evenodd;fill:none;stroke:#000000;stroke-width:0.5;stroke-miterlimit:10;}
	.st9{fill:none;stroke:#000000;stroke-miterlimit:10;}
	.st10{fill:#FFFFFF;}
	.st11{fill:none;stroke:#000000;}
	.st12{fill:#FFFFFF;stroke:#000000;stroke-width:0.5;stroke-linecap:round;stroke-linejoin:round;stroke-miterlimit:10;}
	.st13{fill:#020202;}
	.st14{fill-rule:evenodd;clip-rule:evenodd;fill:#FFFFFF;stroke:#020202;stroke-width:0.5;stroke-miterlimit:10;}
	.st15{opacity:0.5;fill:#13b38b;}
	.st16{fill:#3DA96C;}
	#text{font-size:14px;}
</style>
<g>
	<g>
		<circle class="st0" cx="75" cy="56.5" r="53"/>
		<g>
			<rect x="48" y="26.5" class="st1" width="3" height="15"/>
			<path class="st1" d="M61.3,40.1l-1.8,0.8c-0.5,0.2-1.1,0-1.4-0.6l-5-11.9c-0.2-0.5,0-1.1,0.6-1.4l1.8-0.8c0.5-0.2,1.1,0,1.4,0.6
				l5,11.9C62.1,39.3,61.8,39.9,61.3,40.1z"/>
			<rect x="43" y="28.5" class="st1" width="3" height="12"/>
			<rect x="35" y="40.5" class="st3" width="39" height="1.5"/>
			<path class="st2" d="M45.5,41h-1.9c-0.6,0-1-0.5-1-1V29c0-0.6,0.5-1,1-1h1.9c0.6,0,1,0.5,1,1V40C46.5,40.5,46,41,45.5,41z"/>
			<rect x="46.5" y="26" class="st2" width="3" height="15"/>
			<rect x="49.5" y="26" class="st2" width="3" height="15"/>
			<path class="st2" d="M61.3,40.1l-1.8,0.8c-0.5,0.2-1.1,0-1.4-0.6l-5-11.9c-0.2-0.5,0-1.1,0.6-1.4l1.8-0.8c0.5-0.2,1.1,0,1.4,0.6
				l5,11.9C62.1,39.3,61.8,39.9,61.3,40.1z"/>
			<polygon class="st2" points="45.5,30.1 43.5,30.1 43.5,30.1 45.5,30.1 			"/>
			<circle class="st3" cx="55.5" cy="29" r="0.5"/>
		</g>
		<g>
			<rect x="102" y="34.5" transform="matrix(-1 -4.486867e-11 4.486867e-11 -1 207 84)" class="st1" width="3" height="15"/>
			<path class="st1" d="M91.7,48.1l1.8,0.8c0.5,0.2,1.1,0,1.4-0.6l5-11.9c0.2-0.5,0-1.1-0.6-1.4l-1.8-0.8c-0.5-0.2-1.1,0-1.4,0.6
				l-5,11.9C90.9,47.3,91.2,47.9,91.7,48.1z"/>
			<rect x="107" y="36.5" transform="matrix(-1 -4.486867e-11 4.486867e-11 -1 217 85)" class="st1" width="3" height="12"/>
			<rect x="79" y="48.5" transform="matrix(-1 -4.491530e-11 4.491530e-11 -1 197 98.5)" class="st3" width="39" height="1.5"/>
			<path class="st2" d="M107.5,49h1.9c0.6,0,1-0.5,1-1V37c0-0.6-0.5-1-1-1h-1.9c-0.6,0-1,0.5-1,1V48C106.5,48.5,107,49,107.5,49z"/>
			<rect x="103.5" y="34" transform="matrix(-1 -4.486867e-11 4.486867e-11 -1 210 83)" class="st2" width="3" height="15"/>
			<rect x="100.5" y="34" transform="matrix(-1 -4.486867e-11 4.486867e-11 -1 204 83)" class="st2" width="3" height="15"/>
			<path class="st2" d="M91.7,48.1l1.8,0.8c0.5,0.2,1.1,0,1.4-0.6l5-11.9c0.2-0.5,0-1.1-0.6-1.4l-1.8-0.8c-0.5-0.2-1.1,0-1.4,0.6
				l-5,11.9C90.9,47.3,91.2,47.9,91.7,48.1z"/>
			<polygon class="st2" points="107.5,38.1 109.5,38.1 109.5,38.1 107.5,38.1 			"/>
			<circle class="st3" cx="97.5" cy="37" r="0.5"/>
		</g>
		<g>
			<path class="st2" d="M75,93.5H52v-34h18.3c2.6,0,4.7,2.1,4.7,4.7V93.5z"/>
			<rect x="55" y="65.5" class="st1" width="16" height="6"/>
			<line class="st2" x1="55" y1="63.5" x2="62" y2="63.5"/>
			<line class="st2" x1="55" y1="74" x2="71" y2="74"/>
			<line class="st2" x1="78" y1="74" x2="95" y2="74"/>
			<line class="st2" x1="78" y1="77" x2="95" y2="77"/>
			<line class="st2" x1="78" y1="80" x2="95" y2="80"/>
			<line class="st2" x1="87" y1="83" x2="95" y2="83"/>
			<line class="st2" x1="87" y1="86" x2="95" y2="86"/>
			<line class="st2" x1="87" y1="89" x2="95" y2="89"/>
			<line class="st2" x1="55" y1="77" x2="71" y2="77"/>
			<line class="st2" x1="55" y1="80" x2="71" y2="80"/>
			<line class="st2" x1="55" y1="83" x2="71" y2="83"/>
			<line class="st2" x1="55" y1="86" x2="71" y2="86"/>
			<line class="st2" x1="55" y1="89" x2="71" y2="89"/>
			<path class="st2" d="M75,93.5h23v-34H79.7c-2.6,0-4.7,2.1-4.7,4.7V93.5z"/>
			<polygon class="st3" points="93,62.5 96,62.5 96,69.5 94.5,68.3 93,69.5 			"/>
			<rect x="78" y="82.5" class="st1" width="8" height="7"/>
			<rect x="79.5" y="63" class="st1" width="11" height="6"/>
		</g>
	</g>
	<rect x="20.3" y="116.4" class="st5" width="109.3" height="10.1"/>
	<text transform="matrix(1 0 0 1 3.74 122.9844)" class="st4 st6 st7" id="text">Adequate library facility</text>
</g>
</svg>
