<?xml version="1.0" encoding="utf-8"?>
<!-- Generator: Adobe Illustrator 21.0.0, SVG Export Plug-In . SVG Version: 6.00 Build 0)  -->
<svg version="1.1" id="Layer_1" xmlns="http://www.w3.org/2000/svg" xmlns:xlink="http://www.w3.org/1999/xlink" x="0px" y="0px"
	 viewBox="0 0 150 130" style="enable-background:new 0 0 150 130;" xml:space="preserve">
<style type="text/css">
	.st0{opacity:0.7;fill-rule:evenodd;clip-rule:evenodd;fill:#13b38b;}
	.st1{fill-rule:evenodd;clip-rule:evenodd;fill:#FFFFFF;}
	.st2{fill-rule:evenodd;clip-rule:evenodd;fill:none;stroke:#000000;stroke-miterlimit:10;}
	.st3{fill-rule:evenodd;clip-rule:evenodd;}
	.st4{fill:#606362;}
	.st5{fill-rule:evenodd;clip-rule:evenodd;fill:none;stroke:#000000;stroke-width:0.5;stroke-miterlimit:10;}
	.st6{fill:none;stroke:#000000;stroke-miterlimit:10;}
	.st7{fill-rule:evenodd;clip-rule:evenodd;fill:none;}
	.st8{font-family:'CenturyGothic';}
	.st9{font-size:11px;}
	.st10{fill:#FFFFFF;}
	.st11{fill:none;stroke:#000000;}
	.st12{fill:#FFFFFF;stroke:#000000;stroke-width:0.5;stroke-linecap:round;stroke-linejoin:round;stroke-miterlimit:10;}
	.st13{fill:#020202;}
	.st14{fill-rule:evenodd;clip-rule:evenodd;fill:#FFFFFF;stroke:#020202;stroke-width:0.5;stroke-miterlimit:10;}
	.st15{opacity:0.5;fill:#3DA96C;}
	.st16{fill:#13B38B;}
</style>
<g>
	<g>
		<circle class="st0" cx="75" cy="57" r="53"/>
		<g>
			<g>
				<rect x="57.6" y="23.7" class="st1" width="32.4" height="32.4"/>
				<polygon class="st2" points="54.9,37.3 54.9,21 93,21 93,59.1 54.9,59.1 54.9,45.1 				"/>
				<g>
					<circle class="st3" cx="72.5" cy="54.6" r="0.4"/>
					<circle class="st3" cx="74.1" cy="54.6" r="0.4"/>
					<circle class="st3" cx="75.7" cy="54.6" r="0.4"/>
				</g>
			</g>
			<circle class="st2" cx="47" cy="84" r="6"/>
			<circle class="st2" cx="73.5" cy="83.5" r="6"/>
			<circle class="st2" cx="102.5" cy="83.5" r="6"/>
			<polygon class="st3" points="56.5,82.5 56.5,85.5 61.5,85.5 61.5,87.5 64.5,83.5 61.5,80.5 61.5,82.5 			"/>
			<polygon class="st3" points="84,82 84,85 89,85 89,87 92,83 89,80 89,82 			"/>
			<polyline class="st2" points="65.5,69.5 73.5,61.5 81.5,69.5 			"/>
			<path class="st2" d="M73.5,18.5h-4c0,0,1-3,4-3s4,3,4,3H73.5z"/>
			<line class="st2" x1="66.5" y1="31.5" x2="80.5" y2="31.5"/>
			<line class="st6" x1="66.5" y1="36.5" x2="80.5" y2="36.5"/>
			<line class="st6" x1="66.5" y1="41.5" x2="80.5" y2="41.5"/>
		</g>
	</g>
	<rect x="4.1" y="115.9" class="st7" width="141.8" height="10.1"/>
	<text transform="matrix(1 0 0 1 5.9816 122.4844)" class="st4 st8 st9">Systematic &amp; planned teaching</text>
</g>
</svg>
