<?xml version="1.0" encoding="utf-8"?>
<!-- Generator: Adobe Illustrator 21.0.0, SVG Export Plug-In . SVG Version: 6.00 Build 0)  -->
<svg version="1.1" id="Layer_1" xmlns="http://www.w3.org/2000/svg" xmlns:xlink="http://www.w3.org/1999/xlink" x="0px" y="0px"
	 viewBox="0 0 283 262" style="enable-background:new 0 0 283 262;" xml:space="preserve">
<style type="text/css">
	.st0{opacity:0.5;fill-rule:evenodd;clip-rule:evenodd;fill:#3DA96C;}
	.st1{fill-rule:evenodd;clip-rule:evenodd;fill:#FFFFFF;}
	.st2{fill-rule:evenodd;clip-rule:evenodd;fill:none;stroke:#000000;stroke-miterlimit:10;}
	.st3{fill-rule:evenodd;clip-rule:evenodd;}
	.st4{fill:#606362;}
	.st5{fill-rule:evenodd;clip-rule:evenodd;fill:none;stroke:#000000;stroke-width:0.5;stroke-miterlimit:10;}
	.st6{fill:none;stroke:#000000;stroke-miterlimit:10;}
	.st7{fill:#FFFFFF;}
	.st8{fill:none;stroke:#000000;}
	.st9{fill:#FFFFFF;stroke:#000000;stroke-width:0.5;stroke-linecap:round;stroke-linejoin:round;stroke-miterlimit:10;}
	.st10{fill:#020202;}
	.st11{fill-rule:evenodd;clip-rule:evenodd;fill:#FFFFFF;stroke:#020202;stroke-width:0.5;stroke-miterlimit:10;}
	.st12{opacity:0.5;fill:#3DA96C;}
	.st13{fill:#13B38B;}
</style>
<g>
	<rect x="35.4" y="71" class="st12" width="34.8" height="153.3"/>
	<rect x="35.4" y="71" class="st13" width="17.4" height="153.3"/>
	<rect x="94.6" y="71" class="st12" width="34.8" height="153.3"/>
	<rect x="94.6" y="71" class="st13" width="17.4" height="153.3"/>
	<rect x="153.9" y="71" class="st12" width="34.8" height="153.3"/>
	<rect x="153.9" y="71" class="st13" width="17.4" height="153.3"/>
	<rect x="213.1" y="71" class="st12" width="34.8" height="153.3"/>
	<rect x="213.1" y="71" class="st13" width="17.4" height="153.3"/>
	<path class="st12" d="M262.1,224.2H18.8C8.4,224.2,0,232.6,0,243v18.7h283v-16.6C283,233.5,273.7,224.2,262.1,224.2z"/>
	<rect y="249.1" class="st13" width="283" height="12.6"/>
	<polygon class="st0" points="283,70.7 0,71 0,58.2 142.1,0.3 283,58.2 	"/>
</g>
</svg>
