<?xml version="1.0" encoding="utf-8"?>
<!-- Generator: Adobe Illustrator 21.0.0, SVG Export Plug-In . SVG Version: 6.00 Build 0)  -->
<svg version="1.1" id="Layer_1" xmlns="http://www.w3.org/2000/svg" xmlns:xlink="http://www.w3.org/1999/xlink" x="0px" y="0px"
	 viewBox="0 0 150 130" style="enable-background:new 0 0 150 130;" xml:space="preserve">
<style type="text/css">
	.st0{opacity:0.5;fill-rule:evenodd;clip-rule:evenodd;fill:#3DA96C;}
	.st1{fill-rule:evenodd;clip-rule:evenodd;fill:#FFFFFF;}
	.st2{fill-rule:evenodd;clip-rule:evenodd;fill:none;stroke:#000000;stroke-miterlimit:10;}
	.st3{fill-rule:evenodd;clip-rule:evenodd;}
	.st4{fill:#606362;}
	.st5{fill-rule:evenodd;clip-rule:evenodd;fill:none;stroke:#000000;stroke-width:0.5;stroke-miterlimit:10;}
	.st6{fill:none;stroke:#000000;stroke-miterlimit:10;}
	.st7{fill:#FFFFFF;}
	.st8{fill-rule:evenodd;clip-rule:evenodd;fill:none;}
	.st9{fill:none;stroke:#000000;}
	.st10{font-family:'HelveticaNeue-Bold';}
	.st11{font-size:59.1836px;}
	.st12{font-family:'CenturyGothic';}
	.st13{font-size:11px;}
	.st14{fill:#FFFFFF;stroke:#000000;stroke-width:0.5;stroke-linecap:round;stroke-linejoin:round;stroke-miterlimit:10;}
	.st15{fill:#020202;}
	.st16{fill-rule:evenodd;clip-rule:evenodd;fill:#FFFFFF;stroke:#020202;stroke-width:0.5;stroke-miterlimit:10;}
	.st17{opacity:0.5;fill:#3DA96C;}
	.st18{fill:#13B38B;}
</style>
<g>
	<g>
		<circle class="st0" cx="75" cy="57" r="53"/>
		<g>
			<g>
				<circle class="st2" cx="86" cy="46.6" r="5.6"/>
				<path class="st2" d="M63.7,54.4h27.3c0,0,3.8,0,3.8,3.3s0,13.3,0,13.3H92v23.4H80.2V57.7H63.7V54.4z"/>
				<line class="st2" x1="86" y1="94.4" x2="86" y2="74.4"/>
				<path class="st1" d="M82.2,71.9h8.2c0.2,0,0.4-0.2,0.4-0.4V55.9c0-0.2-0.2-0.4-0.4-0.4h-8.2c-0.2,0-0.4,0.2-0.4,0.4v15.6
					C81.7,71.7,81.9,71.9,82.2,71.9z"/>
				<path class="st1" d="M93.2,60.5c0,0,0.2-5.1-3.2-5.1l-0.1,14h3.3V60.5z"/>
			</g>
			<g>
				<g>
					<path class="st7" d="M56.5,26.1c0.5-1.8,1.2-3.3,2-4.6c0.9-1.3,1.9-2.3,3.2-3c1.2-0.7,2.6-1.1,4.2-1.1c2,0,3.6,0.4,4.9,1.2
						c1.3,0.8,2.4,1.7,3.2,2.9c0.8,1.1,1.4,2.4,1.7,3.7c0.3,1.3,0.5,2.6,0.5,3.7c0,1.9-0.2,3.5-0.5,4.7c-0.3,1.2-0.8,2.3-1.3,3.1
						c-0.5,0.9-1.1,1.6-1.7,2.2c-0.6,0.6-1.2,1.2-1.8,1.8c-0.6,0.6-1.1,1.3-1.5,2.1c-0.4,0.8-0.7,1.8-0.8,3v2.2h-5.6v-2.7
						c0.1-1.7,0.3-3.1,0.7-4.3c0.4-1.1,0.8-2.1,1.3-2.9c0.5-0.8,1-1.5,1.6-2.1c0.6-0.6,1.1-1.2,1.5-1.8c0.5-0.6,1.2-1,1.5-1.8
						c0.3-0.7,0.8-1.4,0.7-2.5c0-1.8-1-3.6-1.6-4.4c-0.6-0.9-1.5-1.3-2.6-1.3c-0.8,0-1.4,0.2-1.9,0.6c-0.5,0.4-1.5,0.3-1.9,1
						c-0.3,0.7-1.3,1.5-1.5,2.5c-0.2,0.9-0.7,2.2-0.7,3.3l-4.4,0.3C55.8,29.8,56.1,27.8,56.5,26.1z M69,51.5v9.1h-6.6v-9.1H69z"/>
				</g>
				<rect x="51" y="18.3" class="st8" width="34.1" height="43.7"/>
				<text transform="matrix(0.8925 0 0 1 51 60.5728)" class="st9 st10 st11">?</text>
			</g>
		</g>
	</g>
	<rect x="4.3" y="115.9" class="st8" width="141.3" height="10.1"/>
	<text transform="matrix(1 0 0 1 4.0051 122.4844)" class="st4 st12 st13">Personal problem solving session</text>
</g>
</svg>
