<?xml version="1.0" encoding="utf-8"?>
<!-- Generator: Adobe Illustrator 21.0.0, SVG Export Plug-In . SVG Version: 6.00 Build 0)  -->
<svg version="1.1" id="Layer_1" xmlns="http://www.w3.org/2000/svg" xmlns:xlink="http://www.w3.org/1999/xlink" x="0px" y="0px"
	 viewBox="0 0 150 130" style="enable-background:new 0 0 150 130;" xml:space="preserve">
<style type="text/css">
	.st0{opacity:0.5;fill-rule:evenodd;clip-rule:evenodd;fill:#3DA96C;}
	.st1{fill-rule:evenodd;clip-rule:evenodd;fill:#FFFFFF;}
	.st2{fill-rule:evenodd;clip-rule:evenodd;fill:none;stroke:#000000;stroke-miterlimit:10;}
	.st3{fill-rule:evenodd;clip-rule:evenodd;}
	.st4{fill:#606362;}
	.st5{fill-rule:evenodd;clip-rule:evenodd;fill:none;stroke:#000000;stroke-width:0.5;stroke-miterlimit:10;}
	.st6{fill-rule:evenodd;clip-rule:evenodd;fill:none;}
	.st7{font-family:'CenturyGothic';}
	.st8{font-size:9px;}
	.st9{fill:none;stroke:#000000;stroke-miterlimit:10;}
	.st10{fill:#FFFFFF;}
	.st11{fill:none;stroke:#000000;}
	.st12{fill:#FFFFFF;stroke:#000000;stroke-width:0.5;stroke-linecap:round;stroke-linejoin:round;stroke-miterlimit:10;}
	.st13{fill:#020202;}
	.st14{fill-rule:evenodd;clip-rule:evenodd;fill:#FFFFFF;stroke:#020202;stroke-width:0.5;stroke-miterlimit:10;}
	.st15{opacity:0.5;fill:#3DA96C;}
	.st16{fill:#13B38B;}
</style>
<g>
	<g>
		<circle class="st0" cx="75" cy="57" r="53"/>
		<g>
			<circle class="st1" cx="74" cy="57" r="21"/>
			<g>
				<g>
					<circle class="st2" cx="73.6" cy="21" r="4"/>
					<path class="st2" d="M80.2,31.6H67v-1.8c0-2,1.6-3.5,3.5-3.5h6.2c2,0,3.5,1.6,3.5,3.5V31.6z"/>
				</g>
				<circle class="st2" cx="74" cy="57" r="23.8"/>
				<g>
					<circle class="st2" cx="74.7" cy="93.5" r="4"/>
					<path class="st2" d="M81.3,82.9H68v1.8c0,2,1.6,3.5,3.5,3.5h6.2c2,0,3.5-1.6,3.5-3.5V82.9z"/>
				</g>
				<g>
					<circle class="st2" cx="110.4" cy="56.7" r="4"/>
					<path class="st2" d="M99.8,63.3V50.1h1.8c2,0,3.5,1.6,3.5,3.5v6.2c0,2-1.6,3.5-3.5,3.5H99.8z"/>
				</g>
				<g>
					<circle class="st2" cx="37.9" cy="56.7" r="4"/>
					<path class="st2" d="M48.5,63.3V50.1h-1.8c-2,0-3.5,1.6-3.5,3.5v6.2c0,2,1.6,3.5,3.5,3.5H48.5z"/>
				</g>
				<polygon class="st5" points="65.9,51 72.4,47.8 74.5,55.4 69.1,58.6 				"/>
				<polyline class="st5" points="76.7,59.7 77.8,51 73.4,51 				"/>
				<line class="st5" x1="76.7" y1="59.7" x2="71.1" y2="57.8"/>
			</g>
		</g>
	</g>
	<rect x="0.5" y="115.9" class="st6" width="149.1" height="10.1"/>
	<text transform="matrix(1 0 0 1 1.165 122.4844)" class="st4 st7 st8">Group discussion &amp; Reading room</text>
</g>
</svg>
