<?xml version="1.0" encoding="utf-8"?>
<!-- Generator: Adobe Illustrator 21.0.0, SVG Export Plug-In . SVG Version: 6.00 Build 0)  -->
<svg version="1.1" id="Layer_1" xmlns="http://www.w3.org/2000/svg" xmlns:xlink="http://www.w3.org/1999/xlink" x="0px" y="0px"
	 viewBox="0 0 150 130" style="enable-background:new 0 0 150 130;" xml:space="preserve">
<style type="text/css">
	.st0{opacity:0.5;fill-rule:evenodd;clip-rule:evenodd;fill:#3DA96C;}
	.st1{fill-rule:evenodd;clip-rule:evenodd;fill:#FFFFFF;}
	.st2{fill-rule:evenodd;clip-rule:evenodd;fill:none;stroke:#000000;stroke-miterlimit:10;}
	.st3{fill-rule:evenodd;clip-rule:evenodd;}
	.st4{fill-rule:evenodd;clip-rule:evenodd;fill:none;}
	.st5{fill:#606362;}
	.st6{font-family:'CenturyGothic';}
	.st7{font-size:9px;}
	.st8{fill-rule:evenodd;clip-rule:evenodd;fill:none;stroke:#000000;stroke-width:0.5;stroke-miterlimit:10;}
	.st9{fill:none;stroke:#000000;stroke-miterlimit:10;}
	.st10{fill:#FFFFFF;}
	.st11{fill:none;stroke:#000000;}
	.st12{fill:#FFFFFF;stroke:#000000;stroke-width:0.5;stroke-linecap:round;stroke-linejoin:round;stroke-miterlimit:10;}
	.st13{fill:#020202;}
	.st14{fill-rule:evenodd;clip-rule:evenodd;fill:#FFFFFF;stroke:#020202;stroke-width:0.5;stroke-miterlimit:10;}
	.st15{opacity:0.5;fill:#3DA96C;}
	.st16{fill:#13B38B;}
</style>
<g>
	<g>
		<circle class="st0" cx="75" cy="57" r="53"/>
		<g>
			<rect x="66" y="26.1" class="st1" width="40.3" height="40.3"/>
			<circle class="st2" cx="51.8" cy="36.2" r="6.8"/>
			<path class="st2" d="M78.9,45.7H45.7c0,0-4.7,0-4.7,4.1S41,66,41,66h3.5v28.4h14.3V49.8h20V45.7z"/>
			<line class="st2" x1="51.8" y1="94.4" x2="51.8" y2="70.1"/>
			<polyline class="st2" points="62.6,43 62.6,22.7 110,22.7 110,70.1 62.6,70.1 62.6,52.7 			"/>
			<g>
				<circle class="st3" cx="84.5" cy="64.5" r="0.5"/>
				<circle class="st3" cx="86.5" cy="64.5" r="0.5"/>
				<circle class="st3" cx="88.5" cy="64.5" r="0.5"/>
			</g>
			<path class="st1" d="M56.6,67H46.4c-0.2,0-0.4-0.2-0.4-0.4V47.4c0-0.2,0.2-0.4,0.4-0.4h10.1c0.2,0,0.4,0.2,0.4,0.4v19.1
				C57,66.8,56.8,67,56.6,67z"/>
			<path class="st1" d="M43,53.2c0,0-0.2-6.2,3.9-6.2L47,64h-4V53.2z"/>
		</g>
	</g>
	<rect x="0.5" y="115.9" class="st4" width="149.1" height="10.1"/>
	<text transform="matrix(1 0 0 1 15.9712 122.4844)" class="st5 st6 st7">Highly qualified &amp; trained faculty</text>
</g>
</svg>
