<svg id="Layer_1" data-name="Layer 1" xmlns="http://www.w3.org/2000/svg" viewBox="0 0 400 400"><defs><style>.cls-1,.cls-2,.cls-5,.cls-7,.cls-8{fill:none;}.cls-1,.cls-2{stroke:#d8993f;}.cls-1,.cls-2,.cls-5,.cls-7{stroke-miterlimit:10;}.cls-2,.cls-5{stroke-width:0.5px;}.cls-3{fill:#d8993f;}.cls-4{fill:#7f0b22;}.cls-5{stroke:#421872;}.cls-6{fill:#145b96;}.cls-7{stroke:#7f0b22;}.cls-8{stroke:#193660;stroke-linecap:round;stroke-linejoin:round;}</style></defs><title>young_buds2</title><path class="cls-1" d="M119.31,230.84a6,6,0,0,0-5.58-1.62,6.13,6.13,0,0,0-3.95,9,6,6,0,0,0,5,3,6.23,6.23,0,0,0,6.25-5"/><path class="cls-2" d="M121,269.2a1.5,1.5,0,0,1-.88-2.87A1.5,1.5,0,0,1,121,269.2Z"/><path class="cls-3" d="M131.7,175.94c-3.31,1-4.88-4.11-1.57-5.13S135,174.92,131.7,175.94Z"/><path class="cls-4" d="M109.54,196.78a1.88,1.88,0,0,1-1.1-3.59A1.88,1.88,0,0,1,109.54,196.78Z"/><path class="cls-5" d="M323.27,178.62A3.59,3.59,0,1,1,325.6,174,3.62,3.62,0,0,1,323.27,178.62Z"/><path class="cls-6" d="M269.94,135.1c-2.75.85-4.06-3.43-1.31-4.27S272.7,134.26,269.94,135.1Z"/><path class="cls-4" d="M145.71,218a1.88,1.88,0,0,1-1.1-3.59A1.88,1.88,0,0,1,145.71,218Z"/><line class="cls-7" x1="80.41" y1="240.03" x2="80.41" y2="236.57"/><line class="cls-7" x1="80.41" y1="247.85" x2="80.41" y2="244.39"/><line class="cls-7" x1="81.86" y1="242.23" x2="85.32" y2="242.19"/><line class="cls-7" x1="75.48" y1="242.26" x2="78.93" y2="242.21"/><line class="cls-8" x1="250.92" y1="202.21" x2="252.92" y2="200.31"/><line class="cls-8" x1="246.52" y1="206.45" x2="248.52" y2="204.55"/><line class="cls-8" x1="250.74" y1="204.55" x2="252.66" y2="206.53"/><line class="cls-8" x1="246.67" y1="200.23" x2="248.6" y2="202.21"/><path class="cls-7" d="M320.51,241.19a3.58,3.58,0,0,0-3.2,1.24,3.63,3.63,0,0,0,1.37,5.63,3.56,3.56,0,0,0,3.44-.36,3.7,3.7,0,0,0,1.15-4.57"/><line class="cls-7" x1="283.63" y1="257.35" x2="283.63" y2="254.6"/><line class="cls-7" x1="283.63" y1="263.58" x2="283.63" y2="260.82"/><line class="cls-7" x1="284.79" y1="259.11" x2="287.55" y2="259.07"/><line class="cls-7" x1="279.7" y1="259.13" x2="282.46" y2="259.09"/><path class="cls-7" d="M84.72,134.73a6.31,6.31,0,0,0-1.67,5.82,6.39,6.39,0,0,0,9.37,4.09,6.27,6.27,0,0,0,3.16-5.21,6.49,6.49,0,0,0-5.19-6.5"/><line class="cls-7" x1="77.3" y1="184.01" x2="77.3" y2="190.37"/><line class="cls-7" x1="74.2" y1="187.19" x2="80.4" y2="187.19"/><line class="cls-7" x1="306.31" y1="146.22" x2="306.31" y2="159.3"/><line class="cls-7" x1="299.93" y1="152.76" x2="312.7" y2="152.76"/></svg>