<svg id="Layer_1" data-name="Layer 1" xmlns="http://www.w3.org/2000/svg" viewBox="0 0 400 400"><defs><style>.cls-1{fill:#efdcad;}.cls-1,.cls-3,.cls-4,.cls-6,.cls-8{stroke:#1d3660;}.cls-1,.cls-3,.cls-4,.cls-5,.cls-6,.cls-7,.cls-8{stroke-linecap:round;stroke-linejoin:round;}.cls-1,.cls-3,.cls-4,.cls-5,.cls-7,.cls-8{stroke-width:2px;}.cls-2,.cls-5{fill:none;}.cls-2{stroke:#000;stroke-miterlimit:10;}.cls-3,.cls-6{fill:#fff;}.cls-4{fill:#77cbdd;}.cls-5,.cls-7{stroke:#193660;}.cls-7,.cls-8,.cls-9{fill:#193660;}</style></defs><title>youn_buds1</title><path class="cls-1" d="M243.24,142.13c0,10.89-2.5,21.9-8.14,31.28a44.57,44.57,0,0,1-20.82,18.43A40.19,40.19,0,0,1,186.89,193a43.32,43.32,0,0,1-22-16.57c-6.15-8.76-9.32-19.34-10-30-.63-10.28.72-21.18,6-30.22a36.34,36.34,0,0,1,19-15.78,55.14,55.14,0,0,1,26.93-2.37c8.68,1.28,17.14,4.69,23.63,10.71,7.06,6.54,11,15.58,12.28,25A61.32,61.32,0,0,1,243.24,142.13Z"/><path class="cls-1" d="M155.37,151a8.83,8.83,0,0,0-5.44,8c-.16,6.21,4.1,12.14,9.75,14.46a14,14,0,0,0,4,1.06A62.72,62.72,0,0,1,155.37,151Z"/><path class="cls-1" d="M242.74,151a8.83,8.83,0,0,1,5.44,8c.16,6.21-4.1,12.14-9.75,14.46a14,14,0,0,1-4,1.06A62.72,62.72,0,0,0,242.74,151Z"/><path d="M151.74,109.55s-10.6,32,5,48.9c0,0-1.71-13.65,2.85-21.72a47.41,47.41,0,0,1,0,10.87s4-10.87,2.63-14.73c0,0,1.23,7.19,2.28,9.12,0,0-1.23-11.22,2.46-15.78,0,0,28.24,20.7,55.6,22.27,0,0-19.12-11.58-19.82-22.1,0,0,1.05,16.31,23,15.26,0,0-12.28-7-11.58-15.43,0,0-4.85,20.16,34.79,26,0,0-15.07-11.43-15-19.5,0,0,1.24,16.23,15,15.31,0,0,6-55-25.47-55.39C223.49,92.59,163.65,75.28,151.74,109.55Z"/><path d="M186.79,159c0,2.28-1,6.31-4,6.31s-4-4-4-6.31,1-6.31,4-6.31S186.79,156.75,186.79,159Z"/><line class="cls-2" x1="182.82" y1="154.66" x2="175.53" y2="151.91"/><line class="cls-2" x1="180.36" y1="155.65" x2="176.86" y2="154.66"/><path d="M210.51,159.44c0,2.28,1,6.31,4,6.31s4-4,4-6.31-1-6.31-4-6.31S210.51,157.16,210.51,159.44Z"/><line class="cls-2" x1="214.49" y1="155.07" x2="221.78" y2="152.32"/><line class="cls-2" x1="216.95" y1="156.06" x2="220.45" y2="155.07"/><path class="cls-2" d="M192.11,177.22s7,6.15,15.85,0"/><path class="cls-3" d="M180.36,190.23s-19.42,22-16.72,58.05h73.27s.6-41.74-19.21-58.05C217.69,190.23,200.94,198.55,180.36,190.23Z"/><polygon class="cls-4" points="163.64 248.28 163.64 289.7 195.98 289.7 200.15 255.19 207.96 289.7 236.91 289.7 236.91 248.28 163.64 248.28"/><path class="cls-4" d="M163.64,248.29a61,61,0,0,1-.25-8.19l73.18-.38s.34,5.7.34,8.57Z"/><path class="cls-5" d="M163.64,264.24s18.16,5.19,35.34.59"/><path class="cls-5" d="M163.64,267.74s19.63,5.78,34.94.37"/><path class="cls-5" d="M163.64,271.15a62.31,62.31,0,0,0,34.49.69"/><path class="cls-5" d="M202.31,264.75a51.25,51.25,0,0,0,34.6,0"/><path class="cls-5" d="M203.1,268.25s14.92,6.24,33.8,0"/><path class="cls-5" d="M203.9,271.79s15.9,5,33,0"/><path class="cls-6" d="M195.48,244a4.79,4.79,0,1,1,4.79,4.79A4.84,4.84,0,0,1,195.48,244Z"/><path class="cls-7" d="M163.64,289.7H196a20.79,20.79,0,0,1,3,7.34,11.65,11.65,0,0,1-.36,6.34,10.69,10.69,0,0,1-5.3,5.54c-3.91,2-8.52,2.6-12.86,2.8s-9.12.09-13.28-1.55a10.58,10.58,0,0,1-5.83-5,11.48,11.48,0,0,1-.89-6.34,23.64,23.64,0,0,1,3.09-9Z"/><path class="cls-8" d="M208,289.7h29.38a21.92,21.92,0,0,1,2.74,7.38c.84,4.84-.79,9.37-5.19,11.86-3.53,2-7.78,2.59-11.77,2.79s-8.3.06-12-1.59c-4.64-2-6.54-6.43-6-11.31a25.23,25.23,0,0,1,2.8-9Z"/><path class="cls-3" d="M178,188.91s-30.18,24.42-28.09,50.8l13.46.38s-1.42-26.23,17-49.86Z"/><path class="cls-3" d="M217.69,190.23s16.47,12.47,18.88,49.48h14.86s-4.09-37.28-31-50.8Z"/><path class="cls-1" d="M149.93,239.71s-3.9,17.49,13.45,12.51V240.09Z"/><rect class="cls-9" x="165.47" y="242.16" width="28.26" height="3.88"/><rect class="cls-9" x="206.63" y="242.16" width="27.91" height="3.88"/><path class="cls-1" d="M251.37,239.71s4.19,17.49-14.46,12.51V240.09Z"/></svg>