<svg id="Layer_1" data-name="Layer 1" xmlns="http://www.w3.org/2000/svg" viewBox="0 0 400 400"><defs><style>.cls-7{fill:none;stroke-miterlimit:10}.cls-4{fill:#7f0b22}.cls-7{stroke:#7f0b22}</style></defs><path d="M298.9 121.26a6 6 0 0 0-5.58-1.62 6 6 0 0 0-4.24 3.47 6.24 6.24 0 0 0 .29 5.5 6 6 0 0 0 5 3 6.08 6.08 0 0 0 3.88-1.18 7.41 7.41 0 0 0 2.37-3.78" stroke="#193660" fill="none" stroke-miterlimit="10"/><circle cx="113.51" cy="279.01" r="1.5" transform="rotate(-17.07 113.478 278.97)" stroke-width=".5" stroke="#d8993f" fill="none" stroke-miterlimit="10"/><circle cx="123.86" cy="184.62" r="2.68" transform="rotate(-17.07 123.827 184.592)" fill="#d8993f"/><circle class="cls-4" cx="101.93" cy="206.23" r="1.88" transform="rotate(-17.07 101.915 206.206)"/><circle cx="329.27" cy="171.26" r="3.59" transform="rotate(-17.07 329.212 171.23)" stroke="#421872" stroke-width=".5" fill="none" stroke-miterlimit="10"/><circle cx="262.23" cy="144.21" r="2.23" transform="rotate(-17.07 262.203 144.208)" fill="#145b96"/><circle class="cls-4" cx="138.1" cy="227.45" r="1.88" transform="rotate(-17.07 138.08 227.407)"/><path class="cls-7" d="M73.35 251.28v-3.46m0 11.27v-3.46m1.46-2.15l3.46-.05m-9.85.08l3.46-.05"/><path d="M263.43 197.27l2-1.9m-6.4 6.14l2-1.9m2.22 0l1.92 1.98m-5.98-6.3l1.92 1.98" stroke="#d8993f" fill="none" stroke-miterlimit="10"/><path class="cls-7" d="M309.87 247.72a3.58 3.58 0 0 0-3.2 1.24 3.53 3.53 0 0 0-.75 3.15 3.69 3.69 0 0 0 2.11 2.48 3.56 3.56 0 0 0 3.44-.36 3.6 3.6 0 0 0 1.4-1.95 4.38 4.38 0 0 0-.25-2.63m-35.85 7.73v-2.76m0 8.98v-2.75m1.16-1.72l2.76-.04m-7.85.06l2.75-.04M77.67 146a6.31 6.31 0 0 0-1.67 5.79 6.23 6.23 0 0 0 3.63 4.41 6.51 6.51 0 0 0 5.73-.32 6.27 6.27 0 0 0 3.16-5.21 6.34 6.34 0 0 0-1.24-4 7.73 7.73 0 0 0-4-2.46m-13.04 51.05v6.36m-3.1-3.18h6.2m41.32 42.7v13.09m-6.38-6.54h12.77"/></svg>