<svg id="Layer_1" data-name="Layer 1" xmlns="http://www.w3.org/2000/svg" viewBox="0 0 400 400"><defs><style>@keyframes hovering-Animation{0%{transform:translate(0,0)}25%{transform:translate(0,3px)}50%{transform:translate(0,6px)}75%{transform:translate(0,9px)}}.cls-1{fill:#77cbdd}</style></defs><g style="transform-origin:50% 50%!important;-moz-transform-origin:50% 50%!important;-moz-animation:hovering-Animation 1s ease-in-out infinite;animation:hovering-Animation alternate 1s ease-in-out infinite"><path class="cls-1" d="M263.81 207.49H298s3.46 7.86-3 17c0 0-4.21 4.49-8 5.59h-12.24s-7.34-3.41-9.67-8.56-3.01-8.94-1.28-14.03z"/><path d="M276.57 177.9v17.7s-13 2.58-13.76 17.52a19 19 0 0 0 12 17h12.16s11.49-3.13 12-17c0 0 .4-14.77-14.51-17.69l-.08-17.53z" stroke-miterlimit="10" fill="none" stroke="#193660"/><path d="M262.81 213.12h6.43m-5.96 3.58h4.36m6.44-38.8h12.73" stroke-miterlimit="10" stroke="#1d3660" fill="#77cbdd"/><circle class="cls-1" cx="284.49" cy="170.77" r="2.43"/><circle class="cls-1" cx="277.98" cy="168.16" r="1.48"/><circle class="cls-1" cx="283.45" cy="165.31" r="1.04"/></g></svg>