<svg id="Layer_1" data-name="Layer 1" xmlns="http://www.w3.org/2000/svg" viewBox="0 0 400 400"><defs><style>.cls-1,.cls-3{fill:none;stroke-miterlimit:10}.cls-1{stroke:#7f0b22}.cls-2{fill:#d8993f}.cls-3{stroke:#421872;stroke-width:.5px}.cls-4{fill:#145b96}</style></defs><path class="cls-1" d="M112.82 171.79a6 6 0 0 0-5.58-1.62 6 6 0 0 0-4.24 3.47 6.24 6.24 0 0 0 .29 5.5 6 6 0 0 0 5 3 6.08 6.08 0 0 0 3.88-1.18 7.41 7.41 0 0 0 2.37-3.78"/><circle class="cls-2" cx="143.22" cy="195.14" r="2.68" transform="rotate(-17.07 143.197 195.13)"/><circle class="cls-2" cx="258.62" cy="257.63" r="2.68" transform="rotate(-17.07 258.577 257.584)"/><circle class="cls-3" cx="280.2" cy="132.27" r="3.59" transform="rotate(-17.07 280.146 132.252)"/><circle class="cls-3" cx="89.79" cy="217.93" r="3.59" transform="rotate(-17.07 89.768 217.908)"/><circle class="cls-4" cx="276.61" cy="112.96" r="2.23" transform="rotate(-17.07 276.57 112.945)"/><circle class="cls-4" cx="135.87" cy="79.35" r="2.23" transform="rotate(-17.07 135.844 79.323)"/><circle cx="129.22" cy="163.56" r="1.88" transform="rotate(-17.07 129.203 163.527)" fill="#7f0b22"/><path class="cls-1" d="M264.63 283.7v-3.46m0 11.27v-3.46m1.45-2.15l3.46-.05m-9.84.07l3.45-.05M58.12 247.31v-3.46m0 11.27v-3.46m1.46-2.15l3.45-.05m-9.84.07l3.45-.05"/><path d="M127.22 233.88l2-1.89m-6.41 6.14l2-1.9m2.22 0l1.92 1.98m-5.98-6.3l1.92 1.97" stroke="#193660" fill="none" stroke-miterlimit="10"/><path class="cls-1" d="M79.61 128.97v6.36m-3.1-3.18h6.2m206.92 118.94v13.08m-6.39-6.54h12.77"/></svg>