<svg id="Layer_1" data-name="Layer 1" xmlns="http://www.w3.org/2000/svg" viewBox="0 0 400 400"><defs><style>@keyframes hovering-Animation{0%{transform:translate(0,0)}25%{transform:translate(0,3px)}50%{transform:translate(0,6px)}75%{transform:translate(0,9px)}}.cls-1{fill:#1d3660}.cls-3{fill:#77cbdd;stroke:#1d3660;stroke-linecap:round;stroke-linejoin:round;stroke-width:.5px}</style></defs><g style="transform-origin:50% 50%!important;-moz-transform-origin:50% 50%!important;-moz-animation:hovering-Animation 1s ease-in-out infinite;animation:hovering-Animation alternate 1s ease-in-out infinite"><path class="cls-1" d="M295.56 176.13v5.74A19.42 19.42 0 1 1 285 219.25a22.22 22.22 0 0 1-8.63 1.73h-.53a25 25 0 1 0 19.7-44.84z"/><path class="cls-1" d="M268.29 216.29h22.66v4.83h-22.66z"/><path class="cls-1" d="M274.39 229.46h33.11a2.59 2.59 0 0 0 1.15-4.91c-8-3.87-21.13-7.48-35.45 0a2.59 2.59 0 0 0 1.19 4.91z"/><circle cx="290.95" cy="224.83" r="2.09" fill="#fff"/><path class="cls-3" transform="rotate(23.89 293.58 187.039)" d="M289.69 172.98h7.87v28.2h-7.87z"/><path class="cls-3" transform="rotate(23.89 299.977 172.574)" d="M296.1 172.09h7.87v1.05h-7.87z"/><path class="cls-3" transform="rotate(23.89 287.234 201.394)" d="M284.74 200.94h5.06v.99h-5.06z"/></g></svg>