<svg id="Layer_1" xmlns="http://www.w3.org/2000/svg" viewBox="0 0 325 92.9"><style>.st2{fill:#fb0}.st3{stroke:#fff;stroke-miterlimit:10}.st3,.st4{fill:none}.st4,.st5{stroke-miterlimit:10}.st4{stroke:#fb0}.st5{fill:#3da96c;stroke:#fff;stroke-width:2}.st6{fill:#fff}.st7{fill:#3da96c;stroke:#fff;stroke-width:2;stroke-linecap:round;stroke-linejoin:round;stroke-miterlimit:10}.st8{fill:none;stroke-width:.5}.st8,.st9{stroke:#fff;stroke-miterlimit:10}.st10,.st9{fill:#3da96c}.st11{fill:none;stroke:#fff;stroke-width:2;stroke-miterlimit:10}</style><path id="XMLID_136_" class="st2" d="M61 22.1C61 10.3 70.6.7 82.4.7s21.4 9.6 21.4 21.4"/><path id="XMLID_135_" class="st2" d="M106.2 46.2h97.2v6.6h-97.2z"/><path id="XMLID_134_" class="st2" d="M237.5 26.7l-11.8-6.5-12 6.1"/><path id="XMLID_133_" class="st2" d="M111.9 61.9H2c-1.1 0-2-.9-2-2v-3.3c0-1.1.9-2 2-2h109.9c1.1 0 2 .9 2 2v3.3c0 1.1-.9 2-2 2z"/><path id="XMLID_132_" class="st2" d="M289 62.5l-20 2.1-11.8-16.4 8.2-18.3 20-2.1 11.8 16.3z"/><path id="XMLID_131_" class="st2" d="M175.5 30.9l34.3.3 41 38.9"/><path id="XMLID_130_" class="st3" d="M1.9 55.6h102.7"/><path id="XMLID_129_" class="st3" d="M107.6 47.1l95.6.5"/><path id="XMLID_128_" class="st2" d="M10.3 70.6l33 6.9-26 10.5z"/><path id="XMLID_127_" class="st4" d="M10.4 29.2h70.2"/><path id="XMLID_126_" class="st4" d="M55.3 33.3l113.2.4"/><path id="XMLID_123_" class="st5" d="M82.3 13.3v65.5h48.5L82.3 13.3zM90 38l25.6 33.7H90V38z"/><path id="XMLID_120_" class="st6" d="M192.8 67.2c-3.3 0-6 2.7-6 6s2.7 6 6 6 6-2.7 6-6-2.7-6-6-6zm0 9.6c-2 0-3.6-1.6-3.6-3.6s1.6-3.6 3.6-3.6 3.6 1.6 3.6 3.6-1.6 3.6-3.6 3.6z"/><path id="XMLID_119_" class="st7" d="M187.6 70.7l-20.5-58.3 24.7 55.5s-3.4.9-4.2 2.8z"/><path id="XMLID_116_" class="st7" d="M198.1 70.3L218.6 12l-24.7 55.5s3.4.9 4.2 2.8z"/><circle id="XMLID_115_" class="st3" cx="192.8" cy="73.1" r="2.1"/><path id="XMLID_114_" class="st3" d="M227.5 17h15v2.1h-15z"/><circle id="XMLID_113_" class="st3" cx="238.9" cy="13.8" r="1"/><circle id="XMLID_112_" class="st8" cx="229.2" cy="14.7" r=".5"/><circle id="XMLID_111_" class="st8" cx="231.5" cy="12.6" r=".7"/><path id="XMLID_110_" class="st9" d="M228.9 39h11.8v37.6s-5.3 5.4-11.8 0V39z"/><path id="XMLID_109_" class="st5" d="M20.2 13.3l-.3 66h12.2l-.3-66.1z"/><path id="XMLID_108_" class="st6" d="M21.3 14.8h9.3v5.9h-9.3z"/><path id="XMLID_107_" class="st6" d="M21.5 21.5h8.9v1.2h-8.9z"/><path id="XMLID_106_" class="st6" d="M21.5 23.6h8.9v1.2h-8.9z"/><path id="XMLID_102_" class="st5" d="M60 12.8v64.6s4.9 4.9 11.1 0l-.4-64.8c0 .1-5 4.8-10.7.2z"/><path id="XMLID_101_" class="st6" d="M59.8 54.5s4.2 4.7 11.1 0v3.1s-6.1 4.9-11.1 0v-3.1z"/><path id="XMLID_100_" class="st6" d="M59.8 60s4.2 4.7 11.1 0v3.1s-6.1 4.9-11.1 0V60z"/><path id="XMLID_98_" class="st3" d="M58.8 41.1H36.6s-3-.1-3.3 3.2c0 0 .1 3.2 3.1 3.2h22.4"/><path id="XMLID_96_" class="st10" d="M35.4 42.2h23.3v.5H35.4z"/><path id="XMLID_95_" class="st10" d="M35.4 43.5h23.3v.5H35.4z"/><path id="XMLID_94_" class="st10" d="M35.4 44.7h23.3v.5H35.4z"/><path id="XMLID_93_" class="st10" d="M35.4 45.9h23.3v.5H35.4z"/><circle id="XMLID_90_" class="st5" cx="255" cy="73.8" r="4.7"/><circle id="XMLID_89_" class="st5" cx="315.2" cy="17.4" r="4.7"/><path id="XMLID_88_" class="st11" d="M256 69.1l19.6-47 19.7 46.8 19.9-46.8"/><circle id="XMLID_87_" class="st5" cx="275.6" cy="17.4" r="4.7"/><circle id="XMLID_86_" class="st5" cx="294.6" cy="73.8" r="4.7"/><path id="XMLID_80_" class="st5" d="M140.2 13.1v31c11.5 0 20.8-6.9 20.8-15.5 0-8.5-9.3-15.5-20.8-15.5zm5.3 23.9V21.6c5.7 0 10.3 3.4 10.3 7.7s-4.6 7.7-10.3 7.7z"/><path id="XMLID_75_" class="st9" d="M144.4 55l4.7-4.2 17.6 20.1-4.2 3.7z"/><path id="XMLID_74_" class="st11" d="M169.4 78.5L140.2 46l.2 7.1-3.1 3 3.3 2.4-3.2 2.6 3 3.1-3 2.3 2.6 2.8v9.5"/><path id="XMLID_73_" fill="#fff" stroke="#fff" stroke-miterlimit="10" d="M162.9 74.9l4.1-3.5 3 7.5z"/><path id="XMLID_72_" class="st11" d="M228.9 21.5h11.8v55.1s-5.9 5.3-11.8 0V21.5z"/><path id="XMLID_24_" fill="none" stroke="#feba06" stroke-miterlimit="10" d="M146.5 92.2h155.1"/><path id="XMLID_17_" class="st4" d="M211.8 87.4l113.2.4"/><text transform="translate(124.74 122.984)" font-family="'Montserrat',sans-serif" color="#fff" font-size="24">ACADEMY</text></svg>