<svg id="Layer_1" data-name="Layer 1" xmlns="http://www.w3.org/2000/svg" viewBox="0 0 400 400"><defs><style>.cls-4,.cls-7{stroke-linecap:round;stroke-linejoin:round;stroke-width:2px}.cls-3{fill:none;stroke:#000}.cls-3,.cls-6{stroke-miterlimit:10}.cls-4{fill:#ee5f74}.cls-4,.cls-6,.cls-7{stroke:#7b3244}.cls-6{fill:#7b3244}.cls-7{fill:#fff}</style></defs><path d="M243.26 142.63c0 30.92-19.8 52.74-44.22 52.74s-44.22-21.82-44.22-52.74S173.54 98 198 98s45.26 13.7 45.26 44.63z" stroke-width="2" stroke-linecap="round" stroke-linejoin="round" stroke="#7a3244" fill="#efdcad"/><path d="M155.38 151.54s-8 2.93-4.59 12.85A15.64 15.64 0 0 0 163.65 175a62.72 62.72 0 0 1-8.27-23.46zm87.38 0s8 2.93 4.59 12.85A15.64 15.64 0 0 1 234.49 175a62.72 62.72 0 0 0 8.27-23.46z" stroke="#1d3660" stroke-width="2" stroke-linecap="round" stroke-linejoin="round" fill="#efdcad"/><ellipse cx="182.83" cy="159.54" rx="3.97" ry="6.31"/><path class="cls-3" d="M182.83 155.16l-7.29-2.75m4.83 3.74l-3.5-.99"/><ellipse cx="214.5" cy="159.95" rx="3.97" ry="6.31"/><path class="cls-3" d="M214.5 155.57l7.29-2.75m-4.83 3.74l3.5-.99m-28.34 22.16s7 6.15 15.85 0"/><path d="M169.56 138.76l4.14-12.15 3.08 12.15s20.84 9.11 43.17 0l3.35-10.83 2.7 11.34s5.45 3.29 15.42-.25c0 0 1.6 41.44-28.76 53.24 0 0-13.48 4.46-1.8 17.37 0 0 10.92 13.67 26.36 0 0 0 12.91-9.7 14.17-34.59s-8.89-63.86-8.89-63.86-6.95-24.55-44.33-22.53c0 0-29.35.23-28.61 50.11z"/><path d="M229.86 138.76l-4.14-12.15-3.08 12.15s-20.84 9.11-43.17 0l-3.35-10.83-2.69 11.34S168 142.56 158 139c0 0-1.6 41.44 28.76 53.24 0 0 13.48 4.46 1.8 17.37 0 0-10.92 13.67-26.36 0 0 0-12.91-9.7-14.17-34.59s8.89-63.86 8.89-63.86 6.95-24.55 44.33-22.53c0 .02 29.35.25 28.61 50.13z"/><path class="cls-4" d="M163.88 247.97v41.42h32.34l4.17-34.51 7.81 34.51h28.95v-41.42h-73.27z"/><path class="cls-4" d="M163.88 248a61 61 0 0 1-.25-8.19l73.18-.38s.34 5.7.34 8.57z"/><path d="M163.88 263.92s18.16 5.19 35.34.59m-35.34 2.92s19.63 5.78 34.94.37m-34.94 3.04a62.31 62.31 0 0 0 34.49.69m4.18-7.09a51.25 51.25 0 0 0 34.6 0m-33.81 3.5s14.92 6.24 33.8 0m-32.99 3.54s15.9 5 33 0" stroke="#7b3244" stroke-miterlimit="10" fill="none" stroke-width="2"/><path class="cls-6" d="M163.88 289.39h32.34s14.1 20.93-16.17 22-16.17-22-16.17-22z"/><path class="cls-6" d="M208.22 289.39h29.38s12.81 20.93-14.69 22-14.69-22-14.69-22z"/><path class="cls-7" d="M178.38 189.16S148.2 213.58 150.29 240l13.46.38s-1.42-26.23 17-49.86zm39.55 1.51s16.47 12.47 18.88 49.48h14.86s-4.09-37.28-31-50.8z"/><path d="M165.71 241.85h28.26v3.88h-28.26zm41.16 0h27.91v3.88h-27.91z" fill="#7b3244"/><path d="M181.63 192.55s-16.26 22.62-14.74 44.4h9.29zm36.3 0s16.26 22.62 14.74 44.4h-9.29z" fill="#73bac3"/><path class="cls-7" d="M180.76 190.37s-17.21 18.38-17 48.75l73.18-.37s-.77-32.88-18.88-48.38c.04 0-17.69 8.17-37.3 0z"/><circle cx="200.52" cy="243.69" r="4.79" fill="#fff" stroke="#7b3244" stroke-miterlimit="10"/><path class="cls-7" d="M180.71 190.85s-17.41 16.36-17.12 55.74l-1.4 29.24 25.92-4.75v-78.17a16.58 16.58 0 0 1-7.4-2.06z"/><path class="cls-7" d="M188.11 214.75l-7.4 4.2 7.4 38.31v-42.51zm0 0l-11.92-18.68 4.52-5.59 7.4 2.77.08 20.65m31.64-23.05s17.41 16.36 17.12 55.74l1.4 29.24-25.92-4.75v-78.17a16.58 16.58 0 0 0 7.4-2.06z"/><path class="cls-7" d="M212.44 215.11l7.39 4.2-7.39 38.32v-42.52z"/><path class="cls-7" d="M212.44 215.11l11.91-18.67-4.52-5.59-7.39 2.77-.09 20.64"/><path d="M150 239.6s-3.79 17.49 13.1 12.51V240zm101.68-.6s4.19 17.49-14.46 12.51v-12.1z" stroke="#7b3244" stroke-width="2" stroke-linecap="round" stroke-linejoin="round" fill="#efdcad"/></svg>