<svg id="Layer_1" data-name="Layer 1" xmlns="http://www.w3.org/2000/svg" viewBox="0 0 400 400"><defs><style>.cls-11{stroke:#000;stroke-miterlimit:10}.cls-2{fill:#77cbdd}.cls-10,.cls-2,.cls-6{stroke:#1d3660;stroke-linecap:round;stroke-linejoin:round;stroke-width:2px}.cls-11{fill:none}.cls-7{fill:#193660}.cls-6{fill:#fff}.cls-10{fill:#efdcad}</style></defs><path d="M180 190.31s-19.42 22-16.72 58.05h73.27s.6-41.74-19.21-58.05c.02 0-16.73 8.32-37.34 0z" stroke-miterlimit="10" stroke="#000" fill="#52a2af"/><path class="cls-2" d="M163.31 248.37v41.41h32.34l4.16-34.51 7.82 34.51h28.95v-41.41h-73.27z"/><path class="cls-2" d="M163.31 248.37a61 61 0 0 1-.25-8.19l73.18-.38s.34 5.7.34 8.57z"/><path d="M163.31 264.32s18.16 5.19 35.34.59m-35.34 2.91s19.63 5.78 34.94.37m-34.94 3.04a62.31 62.31 0 0 0 34.49.69m4.2-7.09a51.25 51.25 0 0 0 34.6 0m-33.83 3.5s14.92 6.24 33.8 0m-33 3.54s15.9 5 33 0" stroke="#193660" fill="none" stroke-linecap="round" stroke-linejoin="round" stroke-width="2"/><path d="M163.31 289.78h32.34s14.1 20.93-16.17 22-16.17-22-16.17-22z" fill="#193660" stroke="#1d3660" stroke-miterlimit="10"/><path d="M207.65 289.78H237s12.81 20.93-14.69 22-14.66-22-14.66-22z" fill="#1d3660" stroke="#1d3660" stroke-miterlimit="10"/><path class="cls-6" d="M177.81 189.55s-30.18 24.42-28.09 50.8l13.46.38s-1.42-26.23 17-49.86zm39.55 1.51s16.47 12.47 18.88 49.48h14.86s-4.09-37.28-31-50.8z"/><path class="cls-7" d="M165.14 242.24h28.26v3.88h-28.26zm41.16 0h27.91v3.88H206.3z"/><path d="M181.05 192.94s-16.26 22.62-14.74 44.4h9.29zm36.31 0s16.26 22.62 14.74 44.4h-9.29z" fill="#73bac3"/><path class="cls-2" d="M162.7 233.19H150s-5.27 16.74 2.93 23.66c0 0 4.86 3.19 9.76 0 .01 0-.82-16.96.01-23.66z"/><path class="cls-7" d="M150.71 233.19a34.39 34.39 0 0 0-1.58 10.6h13.22a103 103 0 0 1 .34-10.6z"/><path class="cls-2" d="M162.51 252s-5.42 1-5.87-3m80.29-14.42h13s5.41 16.74-3 23.66c0 0-5 3.19-10 0 0 0 .85-16.96 0-23.66z"/><path class="cls-7" d="M249.22 234.58a33.61 33.61 0 0 1 1.62 10.6h-13.56a100.46 100.46 0 0 0-.35-10.6z"/><path class="cls-2" d="M237.13 253.42s5.56 1 6-3"/><path class="cls-6" d="M180 191.24s-17.21 18.38-17 48.75l73.18-.37s-.77-32.88-18.88-48.38c.06 0-17.67 8.16-37.3 0z"/><circle cx="199.94" cy="244.08" r="4.79" fill="#fff" stroke-linecap="round" stroke-linejoin="round" stroke="#1d3660"/><path class="cls-10" d="M244.07 142c0 30.92-19.8 52.74-44.22 52.74S155.63 173 155.63 142s18.73-44.67 43.15-44.67 45.29 13.79 45.29 44.67z"/><path class="cls-10" d="M156.2 151s-8 2.93-4.59 12.85a15.64 15.64 0 0 0 12.86 10.65 62.72 62.72 0 0 1-8.27-23.5zm87.37 0s8 2.93 4.59 12.85a15.64 15.64 0 0 1-12.86 10.65 62.72 62.72 0 0 0 8.27-23.5z"/><path d="M152.57 109.47s-10.6 32 5 48.9c0 0-1.71-13.65 2.85-21.72a47.41 47.41 0 0 1 0 10.87s4-10.87 2.63-14.73c0 0 1.23 7.19 2.28 9.12 0 0-1.23-11.22 2.46-15.78 0 0 28.24 20.7 55.6 22.27 0 0-19.12-11.58-19.82-22.1 0 0 1.05 16.31 23 15.26 0 0-12.28-7-11.58-15.43 0 0-4.85 20.16 34.79 26 0 0-15.07-11.43-15-19.5 0 0 1.24 16.23 15 15.31 0 0 6-55-25.47-55.39.01-.04-59.83-17.35-71.74 16.92z"/><ellipse cx="183.65" cy="158.95" rx="3.97" ry="6.31"/><path class="cls-11" d="M183.65 154.58l-7.29-2.75m4.83 3.74l-3.5-.99"/><ellipse cx="215.32" cy="159.36" rx="3.97" ry="6.31"/><path class="cls-11" d="M215.32 154.99l7.29-2.75m-4.83 3.74l3.5-.99m-28.34 22.15s7 6.15 15.85 0"/><path class="cls-6" d="M180.14 190.87s-17.41 16.36-17.14 55.74l-1.4 29.24 25.92-4.75v-78.16a16.58 16.58 0 0 1-7.38-2.07z"/><path class="cls-6" d="M187.53 215.14l-7.39 4.2 7.39 38.31v-42.51zm0 0l-11.91-18.68 4.52-5.59 7.39 2.78.09 20.64m31.64-23.05s17.41 16.36 17.12 55.76l1.4 29.24-25.92-4.75V193.3a16.58 16.58 0 0 0 7.4-2.06z"/><path class="cls-6" d="M211.87 215.5l7.39 4.21-7.39 38.31V215.5zm0 0l11.91-18.67-4.52-5.59-7.39 2.77-.09 20.65"/><path d="M178 149.35s-9 .86-9 11.38 9.91 12.51 9.91 12.51a26.7 26.7 0 0 0 12.28.25c7.37-1.38 5.73-8.33 5.73-8.33s0-1.76 2.8-1.8 2.76 1.8 2.76 1.8-.59 7 5.69 8.12 14.6-1.24 14.6-1.24 9.15-2.78 7.36-13.28-9.78-9.41-9.78-9.41z" stroke-width=".5" fill="#8bedf2" opacity=".48" stroke-miterlimit="10" stroke="#000"/><path d="M178 149.35s-9 .86-9 11.38 9.91 12.51 9.91 12.51a26.7 26.7 0 0 0 12.28.25c7.37-1.38 5.73-8.33 5.73-8.33s0-1.76 2.8-1.8 2.76 1.8 2.76 1.8-.59 7 5.69 8.12 14.6-1.24 14.6-1.24 9.15-2.78 7.36-13.28-9.78-9.41-9.78-9.41z" stroke-width=".5" fill="none" stroke-miterlimit="10" stroke="#000"/><path class="cls-11" d="M228.31 153.61l15.76-3.35m-73.14 3.35l-16.37-3.35"/></svg>