<svg id="Layer_1" data-name="Layer 1" xmlns="http://www.w3.org/2000/svg" viewBox="0 0 400 400"><defs><style>.cls-1,.cls-3{fill:none;stroke-miterlimit:10}.cls-1{stroke:#7f0b22}.cls-2{fill:#d8993f}.cls-3{stroke:#421872;stroke-width:.5px}.cls-4{fill:#145b96}</style></defs><path class="cls-1" d="M126.56 170.68a6 6 0 0 0-5.58-1.62 6 6 0 0 0-4.24 3.47A6.24 6.24 0 0 0 117 178a6 6 0 0 0 5 3 6.08 6.08 0 0 0 3.88-1.18 7.41 7.41 0 0 0 2.37-3.78"/><circle class="cls-2" cx="156.96" cy="194.02" r="2.68" transform="rotate(-17.07 156.927 193.988)"/><circle class="cls-2" cx="272.36" cy="256.51" r="2.68" transform="rotate(-17.07 272.302 256.475)"/><circle class="cls-3" cx="293.94" cy="131.15" r="3.59" transform="rotate(-17.07 293.904 131.149)"/><circle class="cls-3" cx="103.53" cy="216.81" r="3.59" transform="rotate(-17.07 103.493 216.8)"/><circle class="cls-4" cx="290.35" cy="111.84" r="2.23" transform="rotate(-17.07 290.295 111.836)"/><circle class="cls-4" cx="149.61" cy="78.23" r="2.23" transform="rotate(-17.07 149.602 78.22)"/><circle cx="142.95" cy="162.44" r="1.88" transform="rotate(-17.07 142.928 162.419)" fill="#7f0b22"/><path class="cls-1" d="M278.36 282.58v-3.46m0 11.27v-3.46m1.46-2.15l3.46-.05m-9.85.07l3.46-.04M71.86 246.19v-3.46m0 11.27v-3.46m1.46-2.15l3.45-.05m-9.84.07l3.45-.04"/><path d="M140.95 232.77l2-1.9m-6.4 6.14l2-1.89m2.22 0l1.92 1.97m-5.98-6.3l1.92 1.98" stroke="#193660" fill="none" stroke-miterlimit="10"/><path class="cls-1" d="M93.35 127.85v6.36m-3.1-3.18h6.2m206.92 118.94v13.08m-6.39-6.54h12.77"/></svg>