<svg id="Layer_1" data-name="Layer 1" xmlns="http://www.w3.org/2000/svg" viewBox="0 0 400 400"><defs><style>.cls-1,.cls-8{fill:#efdcad}.cls-1{stroke:#1d3660}.cls-1,.cls-3,.cls-4,.cls-7,.cls-8{stroke-linecap:round;stroke-linejoin:round;stroke-width:2px}.cls-2{fill:none;stroke:#000;stroke-miterlimit:10}.cls-3{fill:#fff}.cls-3,.cls-4,.cls-7,.cls-8{stroke:#7b3244}.cls-4{fill:#ee5f74}.cls-7{fill:#7b3244}</style></defs><path class="cls-1" d="M243.4 142.22c0 30.92-19.8 52.74-44.22 52.74S155 173.14 155 142.22s18.73-44.67 43.15-44.67 45.25 13.75 45.25 44.67z"/><path class="cls-1" d="M155.53 151.13s-8 2.93-4.59 12.85a15.64 15.64 0 0 0 12.86 10.65 62.72 62.72 0 0 1-8.27-23.5zm87.37 0s8 2.93 4.59 12.85a15.64 15.64 0 0 1-12.86 10.65 62.72 62.72 0 0 0 8.27-23.5z"/><ellipse cx="182.98" cy="159.13" rx="3.97" ry="6.31"/><path class="cls-2" d="M182.98 154.76l-7.29-2.76m4.83 3.75l-3.5-.99"/><ellipse cx="214.65" cy="159.54" rx="3.97" ry="6.31"/><path class="cls-2" d="M214.65 155.16l7.29-2.75m-4.83 3.75l3.5-1m-28.34 22.16s7 6.15 15.85 0"/><path class="cls-3" d="M180.52 190.33s-19.42 22-16.72 58.05h73.27s.6-41.74-19.21-58.05c-.01 0-16.76 8.31-37.34 0z"/><path class="cls-4" d="M163.8 248.38v41.41h32.34l4.17-34.51 7.81 34.51h28.95v-41.41H163.8z"/><path class="cls-4" d="M163.8 248.38a61 61 0 0 1-.25-8.19l73.18-.38s.34 5.7.34 8.57z"/><path d="M163.8 264.33s18.16 5.19 35.34.59m-35.34 2.91s19.63 5.78 34.94.37m-34.94 3.05a62.31 62.31 0 0 0 34.49.69m4.18-7.09a51.25 51.25 0 0 0 34.6 0m-33.81 3.49s14.92 6.24 33.8 0m-33 3.55s15.9 5 33 0" stroke="#7b3244" fill="none" stroke-linecap="round" stroke-linejoin="round" stroke-width="2"/><circle cx="200.43" cy="244.09" r="4.79" stroke="#7b3244" fill="#fff" stroke-linecap="round" stroke-linejoin="round"/><path class="cls-7" d="M163.8 289.79h32.34s14.1 20.93-16.17 22-16.17-22-16.17-22z"/><path class="cls-7" d="M208.14 289.79h29.38s12.81 20.93-14.69 22-14.69-22-14.69-22z"/><path class="cls-3" d="M178.18 189s-30.18 24.42-28.09 50.8l13.46.38s-1.42-26.23 17-49.86zm39.67 1.33s16.47 12.47 18.88 49.48h14.86s-4.09-37.28-31-50.8z"/><path class="cls-8" d="M150.09 239.81s-3.9 17.49 13.45 12.51v-12.13z"/><path d="M165.63 242.25h28.26v3.88h-28.26zm41.16 0h27.91v3.88h-27.91z" fill="#7b3244"/><path class="cls-8" d="M251.53 239.81s4.19 17.49-14.46 12.51v-12.13z"/><path d="M169.71 138.35l4.14-12.15 3.08 12.15s20.84 9.11 43.17 0l3.35-10.83 2.69 11.34s5.45 3.29 15.42-.25c0 0 1.6 41.44-28.76 53.24 0 0-13.48 4.46-1.8 17.37 0 0 10.92 13.67 26.36 0 0 0 12.91-9.7 14.17-34.59s-8.89-63.86-8.89-63.86-6.95-24.55-44.33-22.53c.01 0-29.31.23-28.6 50.11z"/><path d="M230 138.35l-4.14-12.15-3.08 12.15s-20.84 9.11-43.17 0l-3.35-10.83-2.69 11.34s-5.45 3.29-15.42-.25c0 0-1.6 41.44 28.76 53.24 0 0 13.48 4.46 1.8 17.37 0 0-10.92 13.67-26.36 0 0 0-12.91-9.7-14.17-34.59s8.89-63.86 8.89-63.86S164 86.22 201.4 88.24c0 0 29.35.23 28.6 50.11z"/></svg>