<svg id="Layer_1" data-name="Layer 1" xmlns="http://www.w3.org/2000/svg" viewBox="0 0 400 400"><defs><style>@keyframes hovering-Animation{0%{transform:translate(0,0)}25%{transform:translate(0,3px)}50%{transform:translate(0,6px)}75%{transform:translate(0,9px)}}.cls-3{fill:#346c9b}</style></defs><g style="transform-origin:50% 50%!important;-moz-transform-origin:50% 50%!important;-moz-animation:hovering-Animation 1s ease-in-out infinite;animation:hovering-Animation alternate 1s ease-in-out infinite"><path fill="#74dde8" d="M265.63 176.16h41.82v51.87h-41.82z"/><path fill="#fff" d="M268.66 179.22h35.35v45.75h-35.35z"/><path class="cls-3" d="M295.26 174.34h-7.54a1.18 1.18 0 0 1-2.36 0h-7.54a.94.94 0 0 0-.94.94v4.13a.94.94 0 0 0 .94.94h17.44a.94.94 0 0 0 .94-.94v-4.13a.94.94 0 0 0-.94-.94z"/><path class="cls-3" d="M286.55 172c-3.06 0-3.06 4.75 0 4.75s3.06-4.75 0-4.75zm0 3.56a1.18 1.18 0 0 1 0-2.37 1.18 1.18 0 0 1 0 2.33z"/><path d="M295.78 180.36H278.3a4.7 4.7 0 0 1-.93 0c-.61-.13-.62-1.06-.49-1.63.18-.74 1.49-.47 2.13-.47h15.74a4.47 4.47 0 0 1 1 0c.44.11.42.26.45.69s.19 1.41-.42 1.41zm-24.36 6.35h29.6v1.31h-29.6zm0 6.06h29.6v1.31h-29.6zm0 6.06h29.6v1.31h-29.6zm0 6.06h29.6v1.31h-29.6zm0 6.06h29.6v1.31h-29.6zm0 6.06h29.6v1.31h-29.6z" fill="#193660"/></g></svg>