<svg id="Layer_1" xmlns="http://www.w3.org/2000/svg" viewBox="0 0 472 335.3"><style>.st2{fill:none}.st3{fill:#fb0}.st4{stroke:#fff;stroke-miterlimit:10}.st4,.st5{fill:none}.st5,.st6{stroke-miterlimit:10}.st5{stroke:#fb0}.st6{fill:#3da96c;stroke:#fff;stroke-width:2}.st7{fill:#fff}.st10,.st8,.st9{stroke:#fff;stroke-miterlimit:10}.st8,.st9{stroke-width:2}.st8{stroke-linecap:round;stroke-linejoin:round;fill:#3da96c}.st10,.st9{fill:none}.st10{stroke-width:.5}.st12{fill:#3da96c}.st16{font-family:&apos;Montserrat&apos;,sans-serif}.st17{font-size:60px}.st18{letter-spacing:12}</style><path id="XMLID_56_" class="st3" d="M88.2 132.6c0-17 13.8-30.7 30.7-30.7s30.7 13.8 30.7 30.7"/><path id="XMLID_51_" class="st3" d="M153.3 167.3h140v9.5h-140z"/><path id="XMLID_60_" class="st3" d="M342.4 139.2l-17.1-9.3-17.3 8.8"/><path id="XMLID_53_" class="st3" d="M162.3 189.9H2.3c-1.1 0-2-.9-2-2v-6.6c0-1.1.9-2 2-2h160c1.1 0 2 .9 2 2v6.6c0 1.1-.9 2-2 2z"/><path id="XMLID_54_" class="st3" d="M416.5 190.8l-28.9 3-17-23.5 11.9-26.5 28.9-3 17 23.5z"/><path id="XMLID_55_" class="st3" d="M253 145.3l49.5.5 59 56"/><path id="XMLID_57_" class="st4" d="M3 180.8h148"/><path id="XMLID_58_" class="st4" d="M155.3 168.7l137.7.6"/><path id="XMLID_59_" class="st3" d="M15.2 202.5l47.5 9.9-37.5 15.2z"/><path id="XMLID_52_" class="st5" d="M15.3 142.8h101"/><path id="XMLID_61_" class="st5" d="M80 148.8l163 .5"/><path id="XMLID_426_" class="st6" d="M118.9 120v94.3h69.8L118.9 120zm11 35.5l36.8 48.5h-36.8v-48.5z"/><path id="XMLID_429_" class="st7" d="M278 197.7c-4.8 0-8.7 3.9-8.7 8.7 0 4.8 3.9 8.7 8.7 8.7 4.8 0 8.7-3.9 8.7-8.7 0-4.9-3.9-8.7-8.7-8.7zm0 13.8c-2.9 0-5.2-2.3-5.2-5.2s2.3-5.2 5.2-5.2c2.9 0 5.2 2.3 5.2 5.2s-2.3 5.2-5.2 5.2z"/><path id="XMLID_423_" class="st8" d="M270.5 202.6l-29.5-84 35.6 79.9c0 .1-5 1.4-6.1 4.1z"/><path id="XMLID_422_" class="st8" d="M285.5 202.1l29.5-84-35.6 79.9c.1.1 5.1 1.4 6.1 4.1z"/><circle id="XMLID_79_" class="st4" cx="278" cy="206.2" r="3"/><path id="XMLID_430_" class="st4" d="M328 123.3h21.7v3H328z"/><path id="XMLID_434_" class="st9" d="M330 129.8h17V211s-8.5 7.8-17 0v-81.2z"/><circle id="XMLID_76_" class="st10" cx="344.3" cy="119.7" r="1.5"/><circle id="XMLID_77_" cx="330.4" cy="121" r=".7" fill="none" stroke="#fff" stroke-width=".25" stroke-miterlimit="10"/><circle id="XMLID_78_" class="st10" cx="333.6" cy="117.9" r="1"/><path id="XMLID_82_" class="st6" d="M330 157h17v54.1s-7.7 7.8-17 0V157z"/><path id="XMLID_81_" class="st6" d="M29.4 120l-.4 95.1h17.5l-.3-95.3z"/><path id="XMLID_83_" class="st7" d="M31 122.1h13.3v8.5H31z"/><path id="XMLID_117_" class="st7" d="M31.2 131.8H44v1.8H31.2z"/><path id="XMLID_157_" class="st7" d="M31.2 134.8H44v1.8H31.2z"/><path id="XMLID_159_" class="st6" d="M86.8 119.3v93s7.1 7 16 0l-.5-93.2c-.1 0-7.4 6.7-15.5.2z"/><path id="XMLID_158_" class="st7" d="M86.5 179.3s6 6.8 16 0v4.5s-8.8 7-16 0v-4.5z"/><path id="XMLID_160_" class="st7" d="M86.5 187.2s6 6.8 16 0v4.5s-8.8 7-16 0v-4.5z"/><path id="XMLID_161_" class="st4" d="M85 160.1H53s-4.4-.1-4.7 4.6c0 0 .1 4.6 4.4 4.6H85"/><path id="XMLID_163_" class="st12" d="M51.3 161.7h33.5v.8H51.3z"/><path id="XMLID_164_" class="st12" d="M51.3 163.4h33.5v.8H51.3z"/><path id="XMLID_166_" class="st12" d="M51.3 165.2h33.5v.8H51.3z"/><path id="XMLID_167_" class="st12" d="M51.3 167h33.5v.8H51.3z"/><g id="XMLID_178_"><circle id="XMLID_165_" class="st6" cx="367.5" cy="207.2" r="6.8"/><circle id="XMLID_169_" class="st6" cx="454.2" cy="125.8" r="6.8"/><path id="XMLID_174_" class="st9" d="M369 200.3l28.2-67.6 28.3 67.4 28.7-67.4"/><circle id="XMLID_168_" class="st6" cx="397.2" cy="125.8" r="6.8"/><circle id="XMLID_170_" class="st6" cx="424.5" cy="207.2" r="6.8"/></g><path id="XMLID_236_" class="st6" d="M202.2 119.7v44.6c16.8 0 30.5-10 30.5-22.3s-13.7-22.3-30.5-22.3zm7.8 34.4v-22.2c8.4 0 15.2 5 15.2 11.1s-6.8 11.1-15.2 11.1z"/><path id="XMLID_104_" fill="#3da96c" stroke="#fff" stroke-miterlimit="10" d="M208.3 180l6.7-6 25.3 29-6 5.3z"/><path id="XMLID_105_" class="st9" d="M244.2 213.8l-42-46.7.3 10.2-4.5 4.3 4.8 3.5-4.6 3.7 4.3 4.5-4.3 3.3 3.8 4.1v13.6"/><path id="XMLID_97_" fill="#fff" stroke="#fff" stroke-miterlimit="10" d="M234.9 208.7l5.9-5 4.3 10.8z"/><path id="XMLID_118_" fill="none" stroke="#feba06" stroke-miterlimit="10" d="M214.7 229.3H438"/><path id="XMLID_50_" class="st5" d="M308.7 222.5l163 .5"/><path id="XMLID_273_" class="st2" d="M55.5 3.4h361v48.5h-361z"/><text id="XMLID_274_" transform="translate(30.962 45.404)" class="st7 st16 st17 st18">WELCOME TO</text><path id="XMLID_2_" class="st2" d="M103.1 291.1h265.7v44.2H103.1z"/><text id="XMLID_1_" transform="translate(90.611 333.064)" class="st7 st16 st17 st18">ACADEMY</text></svg>