<svg id="Layer_1" xmlns="http://www.w3.org/2000/svg" viewBox="0 0 150 130"><style>.st1{fill-rule:evenodd;clip-rule:evenodd;fill:#fff}.st2{fill:none;stroke:#000;stroke-miterlimit:10}.st2,.st3{fill-rule:evenodd;clip-rule:evenodd}</style><circle cx="75" cy="56.5" r="53" opacity=".7" fill-rule="evenodd" clip-rule="evenodd" fill="#13b38b"/><path class="st1" d="M48 26.5h3v15h-3zm13.3 13.6l-1.8.8c-.5.2-1.1 0-1.4-.6l-5-11.9c-.2-.5 0-1.1.6-1.4l1.8-.8c.5-.2 1.1 0 1.4.6l5 11.9c.2.6-.1 1.2-.6 1.4zM43 28.5h3v12h-3z"/><path class="st3" d="M35 40.5h39V42H35z"/><path class="st2" d="M45.5 41h-1.9c-.6 0-1-.5-1-1V29c0-.6.5-1 1-1h1.9c.6 0 1 .5 1 1v11c0 .5-.5 1-1 1zm1-15h3v15h-3zm3 0h3v15h-3zm11.8 14.1l-1.8.8c-.5.2-1.1 0-1.4-.6l-5-11.9c-.2-.5 0-1.1.6-1.4l1.8-.8c.5-.2 1.1 0 1.4.6l5 11.9c.2.6-.1 1.2-.6 1.4zm-15.8-10h-2 2z"/><circle class="st3" cx="55.5" cy="29" r=".5"/><path transform="rotate(-180 103.5 42)" class="st1" d="M102 34.5h3v15h-3z"/><path class="st1" d="M91.7 48.1l1.8.8c.5.2 1.1 0 1.4-.6l5-11.9c.2-.5 0-1.1-.6-1.4l-1.8-.8c-.5-.2-1.1 0-1.4.6l-5 11.9c-.2.6.1 1.2.6 1.4z"/><path transform="rotate(-180 108.5 42.5)" class="st1" d="M107 36.5h3v12h-3z"/><path transform="rotate(-180 98.5 49.25)" class="st3" d="M79 48.5h39V50H79z"/><path class="st2" d="M107.5 49h1.9c.6 0 1-.5 1-1V37c0-.6-.5-1-1-1h-1.9c-.6 0-1 .5-1 1v11c0 .5.5 1 1 1z"/><path transform="rotate(-180 105 41.5)" class="st2" d="M103.5 34h3v15h-3z"/><path transform="rotate(-180 102 41.5)" class="st2" d="M100.5 34h3v15h-3z"/><path class="st2" d="M91.7 48.1l1.8.8c.5.2 1.1 0 1.4-.6l5-11.9c.2-.5 0-1.1-.6-1.4l-1.8-.8c-.5-.2-1.1 0-1.4.6l-5 11.9c-.2.6.1 1.2.6 1.4zm15.8-10h2-2z"/><circle class="st3" cx="97.5" cy="37" r=".5"/><path class="st2" d="M75 93.5H52v-34h18.3c2.6 0 4.7 2.1 4.7 4.7v29.3z"/><path class="st1" d="M55 65.5h16v6H55z"/><path class="st2" d="M55 63.5h7M55 74h16m7 0h17m-17 3h17m-17 3h17m-8 3h8m-8 3h8m-8 3h8M55 77h16m-16 3h16m-16 3h16m-16 3h16m-16 3h16m4 4.5h23v-34H79.7c-2.6 0-4.7 2.1-4.7 4.7v29.3z"/><path class="st3" d="M93 62.5h3v7l-1.5-1.2-1.5 1.2z"/><path class="st1" d="M78 82.5h8v7h-8zM79.5 63h11v6h-11z"/><path fill-rule="evenodd" clip-rule="evenodd" fill="none" d="M20.3 116.4h109.3v10.1H20.3z"/></svg>