<svg id="Layer_1" xmlns="http://www.w3.org/2000/svg" viewBox="0 0 150 130"><style>.st1,.st2{fill-rule:evenodd;clip-rule:evenodd;fill:#fff}.st2{fill:none;stroke:#000;stroke-miterlimit:10}</style><circle cx="75" cy="57" r="53" opacity=".7" fill-rule="evenodd" clip-rule="evenodd" fill="#13b38b"/><circle class="st2" cx="86" cy="46.6" r="5.6"/><path class="st2" d="M63.7 54.4H91s3.8 0 3.8 3.3V71H92v23.4H80.2V57.7H63.7v-3.3zm22.3 40v-20"/><path class="st1" d="M82.2 71.9h8.2c.2 0 .4-.2.4-.4V55.9c0-.2-.2-.4-.4-.4h-8.2c-.2 0-.4.2-.4.4v15.6c-.1.2.1.4.4.4z"/><path class="st1" d="M93.2 60.5s.2-5.1-3.2-5.1l-.1 14h3.3v-8.9z"/><path d="M56.5 26.1c.5-1.8 1.2-3.3 2-4.6.9-1.3 1.9-2.3 3.2-3 1.2-.7 2.6-1.1 4.2-1.1 2 0 3.6.4 4.9 1.2 1.3.8 2.4 1.7 3.2 2.9.8 1.1 1.4 2.4 1.7 3.7.3 1.3.5 2.6.5 3.7 0 1.9-.2 3.5-.5 4.7-.3 1.2-.8 2.3-1.3 3.1-.5.9-1.1 1.6-1.7 2.2l-1.8 1.8c-.6.6-1.1 1.3-1.5 2.1-.4.8-.7 1.8-.8 3V48H63v-2.7c.1-1.7.3-3.1.7-4.3.4-1.1.8-2.1 1.3-2.9.5-.8 1-1.5 1.6-2.1.6-.6 1.1-1.2 1.5-1.8.5-.6 1.2-1 1.5-1.8.3-.7.8-1.4.7-2.5 0-1.8-1-3.6-1.6-4.4-.6-.9-1.5-1.3-2.6-1.3-.8 0-1.4.2-1.9.6-.5.4-1.5.3-1.9 1-.3.7-1.3 1.5-1.5 2.5-.2.9-.7 2.2-.7 3.3l-4.4.3c.1-2.1.4-4.1.8-5.8zM69 51.5v9.1h-6.6v-9.1H69z" fill="#fff"/><path fill-rule="evenodd" clip-rule="evenodd" fill="none" d="M51 18.3h34.1V62H51z"/><text transform="matrix(.8925 0 0 1 51 60.573)" font-size="59.184" font-family="'Open Sans',sans-serif" fill="none" stroke="#000">?</text></svg>