<svg id="Layer_1" xmlns="http://www.w3.org/2000/svg" viewBox="0 0 150 130"><style>.st1{fill-rule:evenodd;clip-rule:evenodd;fill:#fff}.st2{fill:none;stroke:#000;stroke-miterlimit:10}.st2,.st3{fill-rule:evenodd;clip-rule:evenodd}</style><circle cx="75" cy="57" r="53" opacity=".7" fill-rule="evenodd" clip-rule="evenodd" fill="#13b38b"/><path class="st1" d="M66 26.1h40.3v40.3H66z"/><circle class="st2" cx="51.8" cy="36.2" r="6.8"/><path class="st2" d="M78.9 45.7H45.7s-4.7 0-4.7 4.1V66h3.5v28.4h14.3V49.8h20v-4.1zM51.8 94.4V70.1"/><path class="st2" d="M62.6 43V22.7H110v47.4H62.6V52.7"/><circle class="st3" cx="84.5" cy="64.5" r=".5"/><circle class="st3" cx="86.5" cy="64.5" r=".5"/><circle class="st3" cx="88.5" cy="64.5" r=".5"/><path class="st1" d="M56.6 67H46.4c-.2 0-.4-.2-.4-.4V47.4c0-.2.2-.4.4-.4h10.1c.2 0 .4.2.4.4v19.1c.1.3-.1.5-.3.5z"/><path class="st1" d="M43 53.2s-.2-6.2 3.9-6.2l.1 17h-4V53.2z"/><path fill-rule="evenodd" clip-rule="evenodd" fill="none" d="M.5 115.9h149.1V126H.5z"/></svg>