<svg id="Layer_1" xmlns="http://www.w3.org/2000/svg" viewBox="0 0 150 130"><style>.st0,.st1{fill-rule:evenodd;clip-rule:evenodd}.st0{opacity:.7;fill:#13b38b}.st1{fill:#fff}.st2,.st9{stroke:#000;stroke-miterlimit:10}.st2{fill-rule:evenodd;clip-rule:evenodd;fill:none}.st9{fill:#fff;stroke-width:.5;stroke-linecap:round;stroke-linejoin:round}</style><circle class="st0" cx="75" cy="57" r="53"/><path class="st9" d="M105.2 45.7v3.7c5.3 1.5 9.2 6.4 9.2 12.1 0 7-5.6 12.6-12.6 12.6-1.2 0-2.3-.2-3.4-.5-1.7.7-3.6 1.1-5.6 1.1h-.3c2.6 1.9 5.9 3 9.4 3 9 0 16.2-7.3 16.2-16.2-.1-7.7-5.6-14.2-12.9-15.8z"/><path class="st9" d="M87.5 71.8h14.7v3.1H87.5z"/><path class="st9" d="M91.5 80.4H113c1.8 0 2.3-2.4.7-3.2-5.2-2.5-13.7-4.9-23 0-1.6.8-1 3.2.8 3.2z"/><circle cx="102.2" cy="77.4" r="1.4" fill="#020202"/><path transform="rotate(23.884 103.956 52.853)" class="st9" d="M101.4 43.7h5.1V62h-5.1z"/><path transform="rotate(23.884 108.114 43.463)" class="st9" d="M105.6 43.1h5.1v.7h-5.1z"/><path transform="rotate(23.884 99.827 62.175)" class="st9" d="M98.2 61.8h3.3v.6h-3.3z"/><path class="st2" d="M60.3 27H41v54"/><path class="st2" d="M41.6 77.8h20.6v2.6H41.6z"/><path d="M52.7 24.8l.8.8v1.1c0 1.7-.7 3.2-1.9 4.4-.4.4-.9.9-1.3 1.4-3 3.8-.1 9.3 4.7 9.3h1.3c5.8 0 8.1-7.5 3.3-10.7-.1 0-.1-.1-.2-.1-1.6-1-2.6-2.9-2.6-4.9v-.5l.8-.8h-4.9z" fill-rule="evenodd" clip-rule="evenodd" fill="#fff" stroke="#020202" stroke-width=".5" stroke-miterlimit="10"/><path class="st0" d="M50.3 36s5.5-3.9 11 0c0 0 .6 2.6-3.5 5.1 0 0-3.3 1.3-6.1-1.3-2.7-2.5-1.4-3.8-1.4-3.8"/><circle class="st1" cx="55.8" cy="22.5" r=".6"/><circle class="st1" cx="57.7" cy="20.6" r="1.3"/><circle class="st1" cx="54.5" cy="18.6" r=".6"/><path fill-rule="evenodd" clip-rule="evenodd" d="M32 80h86v3H32z"/><path class="st9" d="M71.1 63.1v7.1l-3.9 7.2c-.6 1.2.2 2.6 1.5 2.6h9.6c1.5 0 2.4-1.6 1.6-2.9l-4.4-6.9v-7.1h-4.4z"/><path opacity=".5" fill="#3da96c" d="M68.5 78.5l4-7h2l4 7z"/><path fill-rule="evenodd" clip-rule="evenodd" fill="none" d="M23.1 115.9h103.8V126H23.1z"/></svg>