<svg id="Layer_1" xmlns="http://www.w3.org/2000/svg" viewBox="0 0 150 130"><style>.st2{fill:none;stroke:#000;stroke-miterlimit:10}.st2,.st3{fill-rule:evenodd;clip-rule:evenodd}</style><circle cx="75" cy="57" r="53" opacity=".7" fill-rule="evenodd" clip-rule="evenodd" fill="#13b38b"/><path fill-rule="evenodd" clip-rule="evenodd" fill="#fff" d="M57.6 23.7H90v32.4H57.6z"/><path class="st2" d="M54.9 37.3V21H93v38.1H54.9v-14z"/><circle class="st3" cx="72.5" cy="54.6" r=".4"/><circle class="st3" cx="74.1" cy="54.6" r=".4"/><circle class="st3" cx="75.7" cy="54.6" r=".4"/><circle class="st2" cx="47" cy="84" r="6"/><circle class="st2" cx="73.5" cy="83.5" r="6"/><circle class="st2" cx="102.5" cy="83.5" r="6"/><path class="st3" d="M56.5 82.5v3h5v2l3-4-3-3v2zM84 82v3h5v2l3-4-3-3v2z"/><path class="st2" d="M65.5 69.5l8-8 8 8m-8-51h-4s1-3 4-3 4 3 4 3h-4zm-7 13h14"/><path d="M66.5 36.5h14m-14 5h14" fill="none" stroke="#000" stroke-miterlimit="10"/><path fill-rule="evenodd" clip-rule="evenodd" fill="none" d="M4.1 115.9h141.8V126H4.1z"/></svg>