<svg id="Layer_1" xmlns="http://www.w3.org/2000/svg" viewBox="0 0 283 262"><style>.st12{opacity:.5;fill:#3da96c}.st13{fill:#13b38b}</style><g id="institute"><path class="st12" d="M35.4 71h34.8v153.3H35.4z"/><path class="st13" d="M35.4 71h17.4v153.3H35.4z"/><path class="st12" d="M94.6 71h34.8v153.3H94.6z"/><path class="st13" d="M94.6 71H112v153.3H94.6z"/><path class="st12" d="M153.9 71h34.8v153.3h-34.8z"/><path class="st13" d="M153.9 71h17.4v153.3h-17.4z"/><path class="st12" d="M213.1 71h34.8v153.3h-34.8z"/><path class="st13" d="M213.1 71h17.4v153.3h-17.4z"/><path class="st12" d="M262.1 224.2H18.8C8.4 224.2 0 232.6 0 243v18.7h283v-16.6c0-11.6-9.3-20.9-20.9-20.9z"/><path class="st13" d="M0 249.1h283v12.6H0z"/><path opacity=".5" fill-rule="evenodd" clip-rule="evenodd" fill="#3da96c" d="M283 70.7L0 71V58.2L142.1.3 283 58.2z"/></g></svg>