<svg id="Layer_1" xmlns="http://www.w3.org/2000/svg" viewBox="0 0 150 130"><style>.st2{fill-rule:evenodd;clip-rule:evenodd;fill:none;stroke:#000;stroke-miterlimit:10}</style><circle cx="75" cy="57" r="53" opacity=".7" fill-rule="evenodd" clip-rule="evenodd" fill="#13b38b"/><circle cx="74" cy="57" r="21" fill-rule="evenodd" clip-rule="evenodd" fill="#fff"/><circle class="st2" cx="73.6" cy="21" r="4"/><path class="st2" d="M80.2 31.6H67v-1.8c0-2 1.6-3.5 3.5-3.5h6.2c2 0 3.5 1.6 3.5 3.5v1.8z"/><circle class="st2" cx="74" cy="57" r="23.8"/><circle class="st2" cx="74.7" cy="93.5" r="4"/><path class="st2" d="M81.3 82.9H68v1.8c0 2 1.6 3.5 3.5 3.5h6.2c2 0 3.5-1.6 3.5-3.5v-1.8z"/><circle class="st2" cx="110.4" cy="56.7" r="4"/><path class="st2" d="M99.8 63.3V50.1h1.8c2 0 3.5 1.6 3.5 3.5v6.2c0 2-1.6 3.5-3.5 3.5h-1.8z"/><circle class="st2" cx="37.9" cy="56.7" r="4"/><path class="st2" d="M48.5 63.3V50.1h-1.8c-2 0-3.5 1.6-3.5 3.5v6.2c0 2 1.6 3.5 3.5 3.5h1.8z"/><path d="M65.9 51l6.5-3.2 2.1 7.6-5.4 3.2zm10.8 8.7l1.1-8.7h-4.4m3.3 8.7l-5.6-1.9" stroke-width=".5" fill-rule="evenodd" clip-rule="evenodd" fill="none" stroke="#000" stroke-miterlimit="10"/><path fill-rule="evenodd" clip-rule="evenodd" fill="none" d="M.5 115.9h149.1V126H.5z"/></svg>