<svg id="Layer_1" data-name="Layer 1" xmlns="http://www.w3.org/2000/svg" viewBox="0 0 400 400"><defs><style>.cls-1{fill:#efdcad}.cls-1,.cls-3,.cls-4{stroke:#1d3660;stroke-linecap:round;stroke-linejoin:round;stroke-width:2px}.cls-2{fill:none;stroke:#000;stroke-miterlimit:10}.cls-3{fill:#fff}.cls-4{fill:#77cbdd}</style></defs><path class="cls-1" d="M243.24 142.13c0 10.89-2.5 21.9-8.14 31.28a44.57 44.57 0 0 1-20.82 18.43 40.19 40.19 0 0 1-27.39 1.16 43.32 43.32 0 0 1-22-16.57c-6.15-8.76-9.32-19.34-10-30-.63-10.28.72-21.18 6-30.22a36.34 36.34 0 0 1 19-15.78 55.14 55.14 0 0 1 26.93-2.37c8.68 1.28 17.14 4.69 23.63 10.71 7.06 6.54 11 15.58 12.28 25a61.32 61.32 0 0 1 .51 8.36z"/><path class="cls-1" d="M155.37 151a8.83 8.83 0 0 0-5.44 8c-.16 6.21 4.1 12.14 9.75 14.46a14 14 0 0 0 4 1.06 62.72 62.72 0 0 1-8.31-23.52zm87.37 0a8.83 8.83 0 0 1 5.44 8c.16 6.21-4.1 12.14-9.75 14.46a14 14 0 0 1-4 1.06 62.72 62.72 0 0 0 8.31-23.52z"/><path d="M151.74 109.55s-10.6 32 5 48.9c0 0-1.71-13.65 2.85-21.72a47.41 47.41 0 0 1 0 10.87s4-10.87 2.63-14.73c0 0 1.23 7.19 2.28 9.12 0 0-1.23-11.22 2.46-15.78 0 0 28.24 20.7 55.6 22.27 0 0-19.12-11.58-19.82-22.1 0 0 1.05 16.31 23 15.26 0 0-12.28-7-11.58-15.43 0 0-4.85 20.16 34.79 26 0 0-15.07-11.43-15-19.5 0 0 1.24 16.23 15 15.31 0 0 6-55-25.47-55.39.01-.04-59.83-17.35-71.74 16.92z"/><path d="M186.79 159c0 2.28-1 6.31-4 6.31s-4-4-4-6.31 1-6.31 4-6.31 4 4.06 4 6.31z"/><path class="cls-2" d="M182.82 154.66l-7.29-2.75m4.83 3.74l-3.5-.99"/><path d="M210.51 159.44c0 2.28 1 6.31 4 6.31s4-4 4-6.31-1-6.31-4-6.31-4 4.03-4 6.31z"/><path class="cls-2" d="M214.49 155.07l7.29-2.75m-4.83 3.74l3.5-.99m-28.34 22.15s7 6.15 15.85 0"/><path class="cls-3" d="M180.36 190.23s-19.42 22-16.72 58.05h73.27s.6-41.74-19.21-58.05c-.01 0-16.76 8.32-37.34 0z"/><path class="cls-4" d="M163.64 248.28v41.42h32.34l4.17-34.51 7.81 34.51h28.95v-41.42h-73.27z"/><path class="cls-4" d="M163.64 248.29a61 61 0 0 1-.25-8.19l73.18-.38s.34 5.7.34 8.57z"/><path d="M163.64 264.24s18.16 5.19 35.34.59m-35.34 2.91s19.63 5.78 34.94.37m-34.94 3.04a62.31 62.31 0 0 0 34.49.69m4.18-7.09a51.25 51.25 0 0 0 34.6 0m-33.81 3.5s14.92 6.24 33.8 0m-33 3.54s15.9 5 33 0" stroke="#193660" fill="none" stroke-linecap="round" stroke-linejoin="round" stroke-width="2"/><path d="M195.48 244a4.79 4.79 0 1 1 4.79 4.79 4.84 4.84 0 0 1-4.79-4.79z" fill="#fff" stroke-linecap="round" stroke-linejoin="round" stroke="#1d3660"/><path d="M163.64 289.7H196a20.79 20.79 0 0 1 3 7.34 11.65 11.65 0 0 1-.36 6.34 10.69 10.69 0 0 1-5.3 5.54c-3.91 2-8.52 2.6-12.86 2.8s-9.12.09-13.28-1.55a10.58 10.58 0 0 1-5.83-5 11.48 11.48 0 0 1-.89-6.34 23.64 23.64 0 0 1 3.09-9z" fill="#193660" stroke="#193660" stroke-width="2" stroke-linecap="round" stroke-linejoin="round"/><path d="M208 289.7h29.38a21.92 21.92 0 0 1 2.74 7.38c.84 4.84-.79 9.37-5.19 11.86-3.53 2-7.78 2.59-11.77 2.79s-8.3.06-12-1.59c-4.64-2-6.54-6.43-6-11.31a25.23 25.23 0 0 1 2.8-9z" fill="#193660" stroke-width="2" stroke-linecap="round" stroke-linejoin="round" stroke="#1d3660"/><path class="cls-3" d="M178 188.91s-30.18 24.42-28.09 50.8l13.46.38s-1.42-26.23 17-49.86zm39.69 1.32s16.47 12.47 18.88 49.48h14.86s-4.09-37.28-31-50.8z"/><path class="cls-1" d="M149.93 239.71s-3.9 17.49 13.45 12.51v-12.13z"/><path d="M165.47 242.16h28.26v3.88h-28.26zm41.16 0h27.91v3.88h-27.91z" fill="#193660"/><path class="cls-1" d="M251.37 239.71s4.19 17.49-14.46 12.51v-12.13z"/></svg>