<svg id="Layer_1" data-name="Layer 1" xmlns="http://www.w3.org/2000/svg" viewBox="0 0 400 400"><defs><style>.cls-7{fill:none;stroke-miterlimit:10}.cls-4{fill:#7f0b22}.cls-7{stroke:#7f0b22}</style></defs><path d="M119.31 230.84a6 6 0 0 0-5.58-1.62 6.13 6.13 0 0 0-3.95 9 6 6 0 0 0 5 3 6.23 6.23 0 0 0 6.25-5" stroke-miterlimit="10" stroke="#d8993f" fill="none"/><path d="M121 269.2a1.5 1.5 0 0 1-.88-2.87 1.5 1.5 0 0 1 .88 2.87z" stroke-width=".5" stroke-miterlimit="10" stroke="#d8993f" fill="none"/><path d="M131.7 175.94c-3.31 1-4.88-4.11-1.57-5.13s4.87 4.11 1.57 5.13z" fill="#d8993f"/><path class="cls-4" d="M109.54 196.78a1.88 1.88 0 0 1-1.1-3.59 1.88 1.88 0 0 1 1.1 3.59z"/><path d="M323.27 178.62a3.59 3.59 0 1 1 2.33-4.62 3.62 3.62 0 0 1-2.33 4.62z" stroke="#421872" stroke-width=".5" stroke-miterlimit="10" fill="none"/><path d="M269.94 135.1c-2.75.85-4.06-3.43-1.31-4.27s4.07 3.43 1.31 4.27z" fill="#145b96"/><path class="cls-4" d="M145.71 218a1.88 1.88 0 0 1-1.1-3.59 1.88 1.88 0 0 1 1.1 3.59z"/><path class="cls-7" d="M80.41 240.03v-3.46m0 11.28v-3.46m1.45-2.16l3.46-.04m-9.84.07l3.45-.05"/><path d="M250.92 202.21l2-1.9m-6.4 6.14l2-1.9m2.22 0l1.92 1.98m-5.99-6.3l1.93 1.98" stroke="#193660" stroke-linecap="round" stroke-linejoin="round" fill="none"/><path class="cls-7" d="M320.51 241.19a3.58 3.58 0 0 0-3.2 1.24 3.63 3.63 0 0 0 1.37 5.63 3.56 3.56 0 0 0 3.44-.36 3.7 3.7 0 0 0 1.15-4.57m-39.64 14.22v-2.75m0 8.98v-2.76m1.16-1.71l2.76-.04m-7.85.06l2.76-.04M84.72 134.73a6.31 6.31 0 0 0-1.67 5.82 6.39 6.39 0 0 0 9.37 4.09 6.27 6.27 0 0 0 3.16-5.21 6.49 6.49 0 0 0-5.19-6.5M77.3 184.01v6.36m-3.1-3.18h6.2m225.91-40.97v13.08m-6.38-6.54h12.77"/></svg>